<svg xmlns="http://www.w3.org/2000/svg" viewBox="0 0 70.080566 21.34375">
  <path d="M10.547 0C4.672 0 0 4.797 0 10.64c0 5.907 4.672 10.704 10.547 10.704 5.906 0 10.515-4.797 10.515-10.703C21.063 4.798 16.453 0 10.547 0zm0 4.516c4.797 0 8.312 3.046 9.797 6.125-1.485 3.126-5 6.188-9.797 6.188-4.828 0-8.313-3.062-9.797-6.187 1.484-3.078 4.97-6.124 9.797-6.124zm0 .484c-3.125 0-5.672 2.53-5.672 5.64 0 3.157 2.547 5.672 5.672 5.672 3.125 0 5.64-2.515 5.64-5.67 0-3.11-2.515-5.642-5.64-5.642zm0 0" />
  <path d="M31.005 19.844c3.453 0 5.516-1.235 7.36-3.22l-2.516-2.53c-1.407 1.28-2.673 2.11-4.72 2.11-3.078 0-5.218-2.58-5.218-5.657V10.5c0-3.078 2.187-5.594 5.218-5.594 1.797 0 3.203.766 4.594 2.032L38.24 4.03c-1.672-1.64-3.703-2.764-7.094-2.764-5.516 0-9.36 4.187-9.36 9.28v.063c0 5.156 3.922 9.234 9.22 9.234zm0 0" />
  <path d="M39.853 19.53H48.4c4.046 0 6.718-1.64 6.718-4.92v-.063c0-2.406-1.28-3.61-3.36-4.406 1.282-.718 2.36-1.843 2.36-3.874V6.22c0-1.236-.406-2.236-1.234-3.064-1.03-1.015-2.64-1.578-4.688-1.578h-8.343zM43.696 8.83V5.03h3.907c1.672 0 2.593.673 2.593 1.845v.063c0 1.328-1.11 1.89-2.86 1.89zm0 7.235v-3.954h4.58c2.014 0 2.92.75 2.92 1.953v.062c0 1.328-1.062 1.938-2.796 1.938zm0 0" />
  <path d="M63.487 19.78c3.875 0 6.594-2 6.594-5.56v-.048c0-3.14-2.062-4.438-5.703-5.39-3.093-.798-3.875-1.188-3.875-2.36v-.047c0-.875.797-1.578 2.313-1.578s3.078.672 4.672 1.78l2.047-2.983c-1.813-1.453-4.047-2.281-6.672-2.281-3.656 0-6.28 2.156-6.28 5.42v.048c0 3.564 2.342 4.564 5.952 5.486 3 .78 3.625 1.28 3.625 2.28v.063c0 1.046-.986 1.687-2.595 1.687-2.063 0-3.75-.844-5.36-2.172l-2.343 2.797c2.156 1.922 4.906 2.86 7.625 2.86zm0 0" />
</svg>
