<?xml version="1.0" encoding="utf-8"?>
<!-- Generator: Adobe Illustrator 16.0.0, SVG Export Plug-In . SVG Version: 6.00 Build 0)  -->
<!DOCTYPE svg PUBLIC "-//W3C//DTD SVG 1.1//EN" "http://www.w3.org/Graphics/SVG/1.1/DTD/svg11.dtd">
<svg version="1.1" id="svg2" xmlns:svg="http://www.w3.org/2000/svg"
	 xmlns="http://www.w3.org/2000/svg" xmlns:xlink="http://www.w3.org/1999/xlink" x="0px" y="0px" width="412.66px"
	 height="205.32px" viewBox="0 0 412.66 205.32" enable-background="new 0 0 412.66 205.32" xml:space="preserve">
<g id="g3172" transform="translate(0.9995889,0.9989002)">
	<path id="path2396" d="M159.414,65.72h-49.497c0,0-1.979-27.273-26.517-27.273c-27.577,0-31.69,28.239-31.819,44.699
		c-0.132,16.832,0.303,46.214,31.819,46.214c23.795,0,26.517-26.264,26.517-26.264h49.497c0,0-4.594,65.154-76.014,65.154
		c-67.873,0-83.611-49.583-83.398-85.104C0.213,48.057,17.499,0.059,83.4,0.059C157.456,0.059,159.414,65.72,159.414,65.72z"/>
	<path id="path3168" d="M166.749,0v32.857h46.429V0H166.749z"/>
	<path id="path3170_4_" d="M368.178,47.857l-20,71.965l-21.429-71.965h-53.393v-36.25h-45.536v36.25h-60.357v116.429h45.357V73.75
		h13.929l0.536,61.316c0,18.853,13.192,29.22,30.893,29.22h36.786v-32.5h-8.929c-7.832,0-12.768-5.558-12.768-10.357V73.75h16.339
		c0,0,31.468,83.178,31.468,88.75c0,7.447-10.039,8.929-10.039,8.929h-14.286v31.786h27.143c0,0,31.34,3.231,43.571-25.715
		l44.197-129.643"/>
</g>
</svg>
