<?xml version="1.0" encoding="UTF-8" standalone="no"?>
<!-- Created with Inkscape (http://www.inkscape.org/) -->

<svg
   xmlns:dc="http://purl.org/dc/elements/1.1/"
   xmlns:cc="http://creativecommons.org/ns#"
   xmlns:rdf="http://www.w3.org/1999/02/22-rdf-syntax-ns#"
   xmlns:svg="http://www.w3.org/2000/svg"
   xmlns="http://www.w3.org/2000/svg"
   xmlns:sodipodi="http://sodipodi.sourceforge.net/DTD/sodipodi-0.dtd"
   xmlns:inkscape="http://www.inkscape.org/namespaces/inkscape"
   width="100"
   height="21.518223"
   id="svg2"
   version="1.1"
   inkscape:version="0.48.1 "
   sodipodi:docname="New document 1">
  <defs
     id="defs4" />
  <sodipodi:namedview
     id="base"
     pagecolor="#ffffff"
     bordercolor="#666666"
     borderopacity="1.0"
     inkscape:pageopacity="0.0"
     inkscape:pageshadow="2"
     inkscape:zoom="5.6"
     inkscape:cx="80.144901"
     inkscape:cy="26.119075"
     inkscape:document-units="px"
     inkscape:current-layer="layer1"
     showgrid="false"
     fit-margin-top="0.5"
     fit-margin-left="0.5"
     fit-margin-right="0.5"
     fit-margin-bottom="0.5"
     inkscape:window-width="1920"
     inkscape:window-height="1000"
     inkscape:window-x="-8"
     inkscape:window-y="-8"
     inkscape:window-maximized="1">
    <inkscape:grid
       type="xygrid"
       id="grid3004"
       empspacing="5"
       visible="true"
       enabled="true"
       snapvisiblegridlinesonly="true" />
  </sodipodi:namedview>
  <metadata
     id="metadata7">
    <rdf:RDF>
      <cc:Work
         rdf:about="">
        <dc:format>image/svg+xml</dc:format>
        <dc:type
           rdf:resource="http://purl.org/dc/dcmitype/StillImage" />
        <dc:title></dc:title>
      </cc:Work>
    </rdf:RDF>
  </metadata>
  <g
     inkscape:label="Layer 1"
     inkscape:groupmode="layer"
     id="layer1"
     transform="translate(-375.31005,-511.97942)">
    <g
       id="g3019"
       transform="matrix(0.10982612,0,0,0.10982612,378.13616,471.57611)"
       style="fill:#000000">
      <g
         id="flowRoot2996"
         style="font-size:12px;font-style:normal;font-weight:normal;line-height:125%;letter-spacing:0px;word-spacing:0px;fill:#000000;fill-opacity:1;stroke:none;font-family:Gill Sans Ultra Bold;-inkscape-font-specification:Gill Sans Ultra Bold"
         transform="matrix(17.105545,0,0,17.105545,7300.7951,-258.38878)">
        <path
           id="path3007"
           d="m -421.33789,39.040546 0,3.09375 c -0.71876,-0.343746 -1.37891,-0.515621 -1.98047,-0.515625 -0.34766,4e-6 -0.61817,0.05567 -0.81152,0.166992 -0.19337,0.111332 -0.29005,0.264652 -0.29004,0.459961 -1e-5,0.453128 0.41992,0.679691 1.25976,0.679688 0.71875,3e-6 1.32617,-0.123044 1.82227,-0.369141 l 0,3.058594 c -0.70704,0.207031 -1.4629,0.310547 -2.26758,0.310547 -1.41406,0 -2.50781,-0.339844 -3.28125,-1.019532 -0.77344,-0.679686 -1.16016,-1.542966 -1.16015,-2.589843 -10e-6,-1.046871 0.36913,-1.9248 1.10742,-2.633789 0.73828,-0.708978 1.72851,-1.06347 2.9707,-1.063477 0.86328,7e-6 1.74023,0.140632 2.63086,0.421875 z"
           inkscape:connector-curvature="0"
           style="fill:#000000" />
        <path
           inkscape:connector-curvature="0"
           id="path3009"
           d="m -417.30997,45.925312 c -1.11719,0 -2.03809,-0.336914 -2.76269,-1.010743 -0.72461,-0.673826 -1.08692,-1.551755 -1.08692,-2.633789 0,-1.082026 0.35742,-1.962885 1.07227,-2.642578 0.71484,-0.67968 1.64062,-1.019524 2.77734,-1.019531 1.14453,7e-6 2.07519,0.339851 2.79199,1.019531 0.71679,0.679693 1.07519,1.560552 1.0752,2.642578 -10e-6,1.078128 -0.35841,1.95508 -1.0752,2.63086 -0.7168,0.675781 -1.64746,1.013672 -2.79199,1.013672 z m 0,-4.523438 c -0.23438,5e-6 -0.42481,0.0752 -0.57129,0.225586 -0.14649,0.150395 -0.21973,0.34473 -0.21972,0.583008 -1e-5,0.238285 0.0732,0.431644 0.21972,0.580078 0.14648,0.14844 0.33691,0.222659 0.57129,0.222656 0.23828,3e-6 0.43164,-0.07422 0.58008,-0.222656 0.14843,-0.148434 0.22265,-0.341793 0.22266,-0.580078 -1e-5,-0.242184 -0.0742,-0.437496 -0.22266,-0.585938 -0.14844,-0.148433 -0.3418,-0.222651 -0.58008,-0.222656 z"
           style="fill:#000000" />
        <path
           inkscape:connector-curvature="0"
           id="path3011"
           d="m -409.75363,38.765155 0,0.884766 c 0.58594,-0.628899 1.31055,-0.943352 2.17383,-0.943359 1.02734,7e-6 1.7871,0.406256 2.2793,1.21875 0.40233,-0.421869 0.80565,-0.730462 1.20996,-0.925782 0.40429,-0.195305 0.86034,-0.292961 1.36816,-0.292968 0.76562,7e-6 1.36913,0.234382 1.81055,0.703125 0.44139,0.468756 0.6621,1.128911 0.66211,1.980468 l 0,4.429688 -3.42187,0 0,-4.212891 c -1e-5,-0.249995 -0.0615,-0.444331 -0.18457,-0.583008 -0.12306,-0.138666 -0.28419,-0.208002 -0.4834,-0.208007 -0.22267,5e-6 -0.44337,0.07618 -0.66211,0.228515 l 0,4.775391 -3.42188,0 0,-4.212891 c 0,-0.246089 -0.0596,-0.439448 -0.17871,-0.580078 -0.11914,-0.14062 -0.28223,-0.210932 -0.48926,-0.210937 -0.21484,5e-6 -0.43555,0.08008 -0.66211,0.240234 l 0,4.763672 -3.62109,0 0,-7.054688 z"
           style="fill:#000000" />
        <path
           inkscape:connector-curvature="0"
           id="path3013"
           d="m -392.70307,43.13039 0,1.236328 c -0.79298,1.039063 -1.9336,1.558594 -3.42188,1.558594 -1.22656,0 -2.21289,-0.34082 -2.95898,-1.022461 -0.7461,-0.681639 -1.11914,-1.579099 -1.11914,-2.692383 0,-1.058589 0.34277,-1.92187 1.02832,-2.589844 0.68554,-0.667962 1.57519,-1.001946 2.66894,-1.001953 0.55859,7e-6 1.07617,0.09376 1.55274,0.28125 0.47656,0.187507 0.88866,0.462897 1.23633,0.826172 0.34765,0.363287 0.6035,0.785161 0.76758,1.265625 0.16405,0.480473 0.24608,1.06641 0.24609,1.757812 l -3.69727,0 c 0.13281,0.359378 0.35547,0.640628 0.66797,0.84375 0.3125,0.203127 0.66992,0.30469 1.07227,0.304688 0.81249,2e-6 1.46483,-0.255857 1.95703,-0.767578 z m -3.91406,-1.617188 1.70507,0 c -0.0156,-0.351558 -0.10254,-0.625971 -0.26074,-0.823242 -0.15821,-0.19726 -0.36426,-0.295893 -0.61816,-0.295898 -0.22266,5e-6 -0.41602,0.09473 -0.58008,0.284179 -0.16407,0.189458 -0.2461,0.467778 -0.24609,0.834961 z"
           style="fill:#000000" />
        <path
           inkscape:connector-curvature="0"
           id="path3015"
           d="m -384.12934,36.878437 0,8.941406 -4.30664,0 c -1.31641,0 -2.3379,-0.339844 -3.06446,-1.019531 -0.72656,-0.679686 -1.08984,-1.535154 -1.08984,-2.566407 0,-1.003901 0.33105,-1.842768 0.99316,-2.516601 0.66211,-0.673822 1.4873,-1.010735 2.47559,-1.010742 0.54687,7e-6 1.00195,0.08399 1.36523,0.251953 l 0,-2.080078 z m -3.62696,6.375 0,-1.587891 c -0.17969,-0.117183 -0.38281,-0.175777 -0.60937,-0.175781 -0.21485,4e-6 -0.39258,0.08497 -0.5332,0.254883 -0.14063,0.169925 -0.21095,0.383792 -0.21094,0.641601 -1e-5,0.300785 0.0849,0.520511 0.25488,0.65918 0.16992,0.138674 0.44043,0.20801 0.81152,0.208008 z"
           style="fill:#000000" />
        <path
           inkscape:connector-curvature="0"
           id="path3017"
           d="m -379.1635,47.800312 -3.9375,0 1.45312,-3.433594 -2.48437,-5.601563 3.60351,0 0.84961,1.88086 0.81446,-1.88086 3.51562,0 z"
           style="fill:#000000" />
      </g>
    </g>
  </g>
</svg>
