<?xml version="1.0" encoding="UTF-8" standalone="no"?>
<!-- Created with Inkscape (http://www.inkscape.org/) -->

<svg
   xmlns:dc="http://purl.org/dc/elements/1.1/"
   xmlns:cc="http://creativecommons.org/ns#"
   xmlns:rdf="http://www.w3.org/1999/02/22-rdf-syntax-ns#"
   xmlns:svg="http://www.w3.org/2000/svg"
   xmlns="http://www.w3.org/2000/svg"
   version="1.1"
   width="200"
   height="42.535618"
   id="svg2">
  <defs
     id="defs4" />
  <metadata
     id="metadata7">
    <rdf:RDF>
      <cc:Work
         rdf:about="">
        <dc:format>image/svg+xml</dc:format>
        <dc:type
           rdf:resource="http://purl.org/dc/dcmitype/StillImage" />
        <dc:title></dc:title>
      </cc:Work>
    </rdf:RDF>
  </metadata>
  <g
     transform="translate(376.36026,-812.25512)"
     id="layer1">
    <g
       transform="matrix(0.10127528,0,0,0.10127528,-338.24427,768.22157)"
       id="g3142">
      <path
         d="M 960,41 C 880.65817,41 811.59241,85.006358 775.875,149.9375 l 39.9375,21.40625 C 843.94658,121.02657 897.75469,87 959.5,87 c 90.8508,0 164.5,73.64916 164.5,164.5 0,90.85084 -73.6492,164.5 -164.5,164.5 -62.53464,0 -116.92379,-34.90173 -144.75,-86.28125 l -39.5,21.1875 C 810.78119,416.4692 880.18925,461 960,461 c 115.9798,0 210,-94.0202 210,-210 0,-115.9798 -94.0202,-210 -210,-210 z m -0.5,109 C 903.4431,150 858,195.4431 858,251.5 c 0,56.0569 45.4431,101.5 101.5,101.5 38.76945,0 72.4687,-21.73652 89.5625,-53.6875 l -41.3437,-22.15625 C 998.45556,294.89308 979.8957,307 958.5,307 927.8482,307 903,282.1518 903,251.5 c 0,-30.6518 24.8482,-55.5 55.5,-55.5 20.61634,0 38.58577,11.25024 48.1562,27.9375 L 1048,201.75 C 1030.5974,170.85938 997.48182,150 959.5,150 z m 147.9375,266.28125 0,1.5625 4.0625,0 0,11.8125 1.625,0 0,-11.8125 4.0938,0 0,-1.5625 -9.7813,0 z m 11.4063,0 0,13.375 1.5937,0 0,-11.375 3.5625,11.375 1.4688,0 3.5937,-11.1875 0,11.1875 1.5937,0 0,-13.375 -2.2187,0 -2.9375,9.28125 c -0.2977,0.94189 -0.5159,1.67012 -0.6562,2.15625 -0.1237,-0.43752 -0.3242,-1.0876 -0.5938,-1.96875 l -2.9375,-9.46875 -2.4687,0 z"
         transform="translate(-397.35715,393.79074)"
         id="path3120"
         style="fill:#000000;fill-opacity:1;fill-rule:nonzero;stroke:none" />
      <path
         d="M 304.90625,196.625 C 303.19838,196.6933 301.39097,197.70017 301,200 l -17,100 c -0.46337,2.72572 0.96158,5 3,5 l 17.25,0 c 2.04025,0 3.39146,-2.27428 3.75,-5 l 6,-45.625 26,49.625 c 1.33252,2.54276 6.62847,2.54276 8,0 l 26.3125,-48.75 6.0625,44.75 c 0.36921,2.72572 0.56982,5 3.4375,5 l 18.5,0 c 1.56145,0 2.43993,-2.27436 1.96875,-5 L 387,200 c -0.70564,-4.08192 -5.86254,-4.08535 -7,-2 l -36,66 -36,-66 c -0.49788,-0.91278 -1.76541,-1.42809 -3.09375,-1.375 z M 75.5,197 c -29.900763,-0.12988 -54.18426,24.07895 -54.5,53.90625 -0.0043,0.40796 -0.004,0.8084 0,1.1875 0.314893,29.82731 24.599233,54.03613 54.5,53.90625 12.4914,-0.0543 26.69265,-4.30155 37.5625,-15 1.00561,-0.98975 0.99201,-1.94549 -0.0625,-3 L 99,274 c -0.91908,-0.91908 -1.89908,-0.89288 -2.90625,0 -5.00303,4.43533 -12.6478,7.74767 -20.59375,8 -16.63634,0.5283 -30.186474,-13.32536 -30.5,-29.90625 -0.0077,-0.40834 -0.0071,-0.80886 0,-1.1875 C 45.312003,234.32534 58.863657,220.4717 75.5,221 c 7.945946,0.25233 15.590722,3.56467 20.59375,8 1.007168,0.89288 1.98717,0.91908 2.90625,0 l 14,-14 c 1.05451,-1.05451 1.06811,-2.01025 0.0625,-3 C 102.19265,201.30155 87.991401,197.05426 75.5,197 z m 122,0 c -30.09952,0 -54.5,24.40048 -54.5,54.5 0,30.09952 24.40048,54.5 54.5,54.5 30.09952,0 54.5,-24.40048 54.5,-54.5 0,-30.09952 -24.40048,-54.5 -54.5,-54.5 z m 249.875,1 c -1.86975,0 -3.375,1.50525 -3.375,3.375 l 0,100.25 c 0,1.86975 1.50525,3.375 3.375,3.375 l 62.25,0 c 1.86975,0 3.375,-1.50525 3.375,-3.375 l 0,-16.25 C 513,283.50525 511.49475,282 509.625,282 l -41.625,0 0,-20 34.625,0 c 1.86975,0 3.375,-1.50525 3.375,-3.375 l 0,-16.25 C 506,240.50525 504.49475,239 502.625,239 l -34.625,0 0,-18 41.625,0 c 1.86975,0 3.375,-1.50525 3.375,-3.375 l 0,-16.25 C 513,199.50525 511.49475,198 509.625,198 l -62.25,0 z m 109.875,0 c -2.27725,0 -4.125,1.84775 -4.125,4.125 l 0,98.75 c 0,2.27725 1.84775,4.125 4.125,4.125 l 35.25,0 3.375,0 c 0.4443,0 0.84982,-0.0895 1.25,-0.21875 C 624.5038,302.43359 646,279.48694 646,251.5 646,223.51306 624.5038,200.56641 597.125,198.21875 596.72482,198.0895 596.3193,198 595.875,198 l -3.375,0 -35.25,0 z m 113.125,0 c -2.7339,0 -3.70022,1.84775 -2.1875,4.125 l 27.09375,40.8125 5.65625,8.5 1.0625,1.59375 0,47.03125 c 0,2.7339 2.2036,4.9375 4.9375,4.9375 l 15.125,0 c 2.7339,0 4.9375,-2.2036 4.9375,-4.9375 l 0,-46.84375 1.1875,-1.78125 5.5,-8.3125 0.15625,-0.1875 27.09375,-40.8125 c 1.51272,-2.27725 0.51515,-4.125 -2.21875,-4.125 l -17.375,0 c -2.7339,0 -6.14353,1.84775 -7.65625,4.125 l -19.125,28.78125 -19.125,-28.78125 C 693.92478,199.84775 690.4839,198 687.75,198 l -17.375,0 z M 197.5,221 c 16.84468,0 30.5,13.65531 30.5,30.5 0,16.84469 -13.65532,30.5 -30.5,30.5 -16.84468,0 -30.5,-13.65531 -30.5,-30.5 0,-16.84469 13.65532,-30.5 30.5,-30.5 z m 379.5,0 13.5,0 c 16.84468,0 30.5,13.65532 30.5,30.5 0,16.84468 -13.65532,30.5 -30.5,30.5 l -13.5,0 0,-61 z"
         transform="translate(-397.35715,393.79074)"
         id="path3062"
         style="fill:#000000;fill-opacity:1;fill-rule:nonzero;stroke:none" />
      <path
         d="m 1671.7188,196.5625 c -2.7831,-0.089 -6.7188,1.63708 -6.7188,3.6875 l 0,99.8125 c 0,2.73389 2.2036,4.9375 4.9375,4.9375 l 15.125,0 c 2.7339,0 4.9375,-2.20361 4.9375,-4.9375 l 0,-52.375 59.0625,58 c 1.9505,1.91562 8.9375,-0.2036 8.9375,-2.9375 l 0,-99.8125 c 0,-2.7339 -2.2036,-4.9375 -4.9375,-4.9375 l -15.125,0 c -2.7339,0 -4.9375,2.2036 -4.9375,4.9375 l 0,54.25 -59.0625,-59.875 c -0.48,-0.48658 -1.2912,-0.72032 -2.2187,-0.75 z M 1941.3125,197 c -12.4914,0.0543 -26.6927,4.30155 -37.5625,15 -1.0062,0.98975 -0.9921,1.94549 0.062,3 l 14,14 c 0.919,0.91908 1.899,0.89288 2.9063,0 5.003,-4.43533 12.6477,-7.74767 20.5937,-8 16.6363,-0.5283 30.188,13.32534 30.5,29.90625 0.01,0.37864 0.01,0.77916 0,1.1875 -0.3135,16.58089 -13.8637,30.43455 -30.5,29.90625 -7.946,-0.25233 -15.5908,-3.56467 -20.5937,-8 -1.0073,-0.89288 -1.9873,-0.91908 -2.9063,0 l -14,14 c -1.0541,1.05451 -1.0682,2.01025 -0.062,3 10.8698,10.69845 25.0711,14.9457 37.5625,15 29.9007,0.12988 54.1852,-24.07894 54.5,-53.90625 l 0,-1.1875 c -0.3157,-29.8273 -24.5993,-54.03613 -54.5,-53.90625 z m -722.0313,1 c -1.8178,0 -3.2812,1.46344 -3.2812,3.28125 l 0,16.4375 c 0,1.81781 1.4635,3.28125 3.2812,3.28125 l 35.7188,0 0,80.71875 c 0,1.81781 1.4635,3.28125 3.2812,3.28125 l 18.4376,0 c 1.8178,0 3.2812,-1.46344 3.2812,-3.28125 0,-24.20604 4e-4,-67.93158 0,-100.4375 0.1227,-1.81367 -1.4635,-3.28125 -3.2812,-3.28125 l -57.4376,0 z m 94.125,0 c -2.0045,0 -2.939,1.46344 -2.0937,3.28125 L 1359.5,305 c 1.1572,2.49018 5.4358,2.49018 6.5938,0 l 48.2187,-103.71875 C 1415.1578,199.46344 1414.2233,198 1412.2188,198 l -17.1563,0 c -2.0047,0 -4.3108,1.46344 -5.1563,3.28125 L 1384,214 l -42.25,0 -5.9062,-12.71875 C 1334.9983,199.46344 1332.7233,198 1330.7188,198 l -17.3126,0 z m 129.8438,0 c -2.2772,0 -3.2367,1.62027 -2.1562,3.625 l 21.5,39.90625 C 1449.4896,245.72099 1440,258.00574 1440,272.5 c 0,17.94925 14.5507,32.5 32.5,32.5 16.6494,2e-5 29.3521,0 45.375,0 2.2772,0 4.125,-1.84775 4.125,-4.125 l 0,-98.75 c 0,-2.27725 -1.8478,-4.125 -4.125,-4.125 l -15.75,0 c -2.2772,0 -4.125,1.84775 -4.125,4.125 l 0,37.875 -9.3125,0 L 1468,201.625 c -1.0802,-2.00473 -3.7853,-3.625 -6.0625,-3.625 l -18.6875,0 z m 142.0312,0 c -1.8179,0 -3.2812,1.46344 -3.2812,3.28125 l 0,80.71875 -21.7188,0 c -1.8177,0 -3.2812,1.46344 -3.2812,3.28125 l 0,16.4375 c 0,1.81781 1.4635,3.28125 3.2812,3.28125 l 67.4376,0 c 1.8177,0 3.2812,-1.46344 3.2812,-3.28125 l 0,-16.4375 C 1631,283.46344 1629.5365,282 1627.7188,282 l -21.7188,0 0,-80.71875 C 1606,199.46344 1604.5365,198 1602.7188,198 l -17.4376,0 z m 216.0938,0 c -1.8698,0 -3.375,1.50525 -3.375,3.375 l 0,16.25 c 0,1.86975 1.5052,3.375 3.375,3.375 l 41.625,0 0,20 -34.625,0 c -1.8698,0 -3.375,1.50525 -3.375,3.375 l 0,16.25 c 0,1.86975 1.5052,3.375 3.375,3.375 l 34.625,0 0,18 -41.625,0 c -1.8698,0 -3.375,1.50525 -3.375,3.375 l 0,16.25 c 0,1.86975 1.5052,3.375 3.375,3.375 l 62.25,0 c 1.8697,0 3.375,-1.50525 3.375,-3.375 l 0,-100.25 c 0,-1.86975 -1.5053,-3.375 -3.375,-3.375 l -62.25,0 z m -449.8438,37 22.6876,0 -11.3438,24.40625 L 1351.5312,235 z M 1476,259 l 22,0 0,24 -22,0 c -6.6274,0 -12,-5.37258 -12,-12 0,-6.62742 5.3726,-12 12,-12 z"
         transform="translate(-397.35715,393.79074)"
         id="rect3041"
         style="fill:#000000;fill-opacity:1;fill-rule:nonzero;stroke:none" />
    </g>
    <rect
       width="0"
       height="6.0104074"
       ry="0.088388346"
       x="1498.7128"
       y="237.4866"
       transform="translate(-397.35715,393.79074)"
       id="rect3043"
       style="fill:#ffff00;fill-opacity:1;fill-rule:nonzero;stroke:none" />
  </g>
  <g
     transform="translate(-20.996885,-418.46438)"
     id="layer2" />
</svg>
