<?xml version="1.0" encoding="UTF-8" standalone="no"?>
<svg
   xmlns:dc="http://purl.org/dc/elements/1.1/"
   xmlns:cc="http://web.resource.org/cc/"
   xmlns:rdf="http://www.w3.org/1999/02/22-rdf-syntax-ns#"
   xmlns:svg="http://www.w3.org/2000/svg"
   xmlns="http://www.w3.org/2000/svg"
   xmlns:sodipodi="http://sodipodi.sourceforge.net/DTD/sodipodi-0.dtd"
   xmlns:inkscape="http://www.inkscape.org/namespaces/inkscape"
   width="780"
   height="252"
   id="svg2"
   sodipodi:version="0.32"
   inkscape:version="0.45.1"
   version="1.0">
  <g
     inkscape:label="Layer 1"
     inkscape:groupmode="layer"
     id="layer1"
     transform="translate(205.01038,-189.92243)">
    <path
       style="fill:#ef3e42"
       id="path13224"
       d="M -78.992212,441.92243 C -9.442392,441.92243 46.98962,385.49042 46.98962,315.90426 C 46.98962,246.31811 -9.442392,189.92243 -78.992212,189.92243 C -148.54203,189.92243 -205.01038,246.31811 -205.01038,315.90426 C -205.01038,385.49042 -148.54203,441.92243 -78.992212,441.92243"
       clip-path="url(#SVGID_653_)" />
    <rect
       style="fill:#007ac2"
       id="rect13226"
       height="237.57405"
       width="230.96063"
       clip-path="url(#SVGID_653_)"
       y="199.33328"
       x="56.510548" />
    <polygon
       style="fill:#009d57"
       id="polygon13228"
       points="458.711,282.402 462.589,275.791 454.836,275.791 458.711,282.402 "
       clip-path="url(#SVGID_653_)"
       transform="matrix(36.337419,0,0,36.337419,-16234.318,-9822.1993)" />
    <path
       style="fill:#ffffff"
       id="path13230"
       d="M -5.2635888,341.26778 C -15.656091,372.62697 -44.907713,395.22885 -79.428261,395.22885 C -122.59711,395.22885 -157.55371,359.87254 -157.55371,316.26764 C -157.55371,272.66273 -124.37765,239.15963 -81.208795,239.15963 C -45.561786,239.15963 -14.311606,261.9432 -4.4641656,294.39251 L -26.048592,294.39251 C -34.95126,273.31681 -56.463012,258.96353 -80.736408,258.96353 C -112.56799,258.96353 -137.09574,283.70931 -137.09574,315.86793 C -137.09574,348.02654 -111.29618,374.11681 -79.428261,374.11681 C -56.608362,374.11681 -36.913481,360.7083 -27.502089,341.26778 L -5.2635888,341.26778 L -5.2635888,341.26778 z "
       clip-path="url(#SVGID_653_)" />
    <polygon
       style="fill:#ffffff"
       id="polygon13232"
       points="449.434,277.692 449.434,277.106 453.578,277.106 453.578,277.692 451.818,277.692 451.818,281.002 451.231,281.002 451.231,277.692 449.434,277.692 "
       clip-path="url(#SVGID_653_)"
       transform="matrix(36.337419,0,0,36.337419,-16234.318,-9822.1993)" />
    <polygon
       style="fill:#ffffff"
       id="polygon13234"
       points="458.709,280.895 461.016,276.994 460.334,276.994 458.709,279.697 457.085,276.994 456.401,276.994 458.709,280.895 "
       clip-path="url(#SVGID_653_)"
       transform="matrix(36.337419,0,0,36.337419,-16234.318,-9822.1993)" />
  </g>
</svg>
