<?xml version="1.0" encoding="utf-8"?>
<!-- Generator: Adobe Illustrator 16.0.0, SVG Export Plug-In . SVG Version: 6.00 Build 0)  -->
<!DOCTYPE svg PUBLIC "-//W3C//DTD SVG 1.1//EN" "http://www.w3.org/Graphics/SVG/1.1/DTD/svg11.dtd">
<svg version="1.1" id="Layer_1" xmlns="http://www.w3.org/2000/svg" xmlns:xlink="http://www.w3.org/1999/xlink" x="0px" y="0px"
	 width="401.7px" height="95.745px" viewBox="0 0 401.7 95.745" enable-background="new 0 0 401.7 95.745" xml:space="preserve">
<path fill="#F58363" d="M216.241,61.158l-2.605,1.045c-0.055,0-0.108,0.027-0.163,0.04c-23.343,7.233-28.283-11.358-28.283-11.358
	h32.463c0,0,6.379,0.258,7.654-8.116c1.141-7.641-5.646-15.783-5.646-15.783c-6.106-8.225-19.054-7.953-19.054-7.953
	c-15.227,0-26.654,11.889-26.654,27.116c0,3.609,0.705,6.12,1.981,9.269c0,0,5.781,19.8,27.55,19.339
	c3.936-0.081,7.6-0.502,11.102-1.736l3.501-1.059l4.75-1.941c5.238-2.904,0.868-8.225,0.868-8.225
	C221.044,58.551,216.241,61.158,216.241,61.158 M188.311,37.367c0,0,1.086-1.981,3.719-4.303c0,0,9.581-8.807,18.837,0.178
	c0,0,5.266,6.297,1.411,7.057H190.7C190.7,40.298,187.226,40.597,188.311,37.367"/>
<path fill="#F58363" d="M59.656,29.128v25.989c0,0,0.107,9.337,11.209,7.22c0,0,9.012-0.882,9.229-14.982V28.247
	c0,0-0.896-6.663,3.99-7.993c0,0,7.438-2.782,8.902,4.764v39.858v2.999c0,0,0.326,5.66-4.56,5.985c0,0-7.22,1.452-7.898-3.882
	v-0.312c0,0-19.76,13.884-32.327-5.103c0,0-2.198-6.895-2.198-16.219l0.218-17.547"/>
<path fill="#F58363" d="M101.862,47.341V28.234c0,0-0.896-6.65,3.99-7.994c0,0,7.437-2.769,8.876,4.791v3.297v39.547
	c0,0,0.353,5.66-4.561,5.999c0,0-7.193,1.438-7.871-3.896v-0.312"/>
<path fill="#F58363" d="M399.426,61.971l-14.982-14.996l13.246-13.272l2.389-2.375c4.396-6.46-2.959-9.813-2.959-9.813
	c-4.451-2.551-8.604,2.877-8.604,2.877L375.188,37.72l-13.326-13.314l-2.361-2.375c-6.461-4.396-9.826,2.959-9.826,2.959
	c-2.551,4.465,2.877,8.604,2.877,8.604l13.381,13.382l-16.014,16.651l-0.217,0.218c-3.365,4.302,2.877,8.455,2.877,8.455
	c3.719,3.271,7.572-1.032,7.572-1.032l15.037-15.05l16.611,15.96l0.217,0.244c4.289,3.352,8.469-2.877,8.469-2.877
	C403.742,65.785,399.426,61.971,399.426,61.971"/>
<path fill="#F58363" d="M46.22,34.083V27.88c0,0-0.869-6.664,4.017-7.994c0,0,7.979-2.781,9.446,4.777v12.975"/>
<path fill="#F58363" d="M168.986,27.894c-5.076-5.469-12.35-8.889-20.412-8.889c-15.389,0-27.848,12.484-27.848,27.861
	c0,15.39,12.459,27.861,27.848,27.861c7.004,0,13.382-2.578,18.295-6.826l0.135-0.136l2.063-1.886
	c3.909-5.198-2.036-8.279-2.036-8.279c-3.637-2.307-7.301,2.036-7.301,2.036s-2.633,2.198-4.018,2.81
	c-4.098,1.846-7.139,1.303-7.139,1.303c-9.309,0-16.883-7.56-16.883-16.883c0-9.324,7.574-16.883,16.883-16.883
	c4.289,0,8.225,1.602,11.211,4.234l1.059,1.086l2.008,2.225c5.211,3.923,8.306-2.063,8.306-2.063
	c2.308-3.609-2.063-7.287-2.063-7.287L168.986,27.894z"/>
<path fill="#F58363" d="M317.619,19.099c-15.119,0-27.387,12.283-27.387,27.414c0,15.133,12.268,27.414,27.387,27.414
	c15.172,0,27.414-12.281,27.414-27.414C345.033,31.382,332.791,19.099,317.619,19.099 M317.619,62.636
	c-8.904,0-16.096-7.22-16.096-16.123c0-8.902,7.191-16.122,16.096-16.122c8.93,0,16.121,7.22,16.121,16.122
	C333.74,55.417,326.549,62.636,317.619,62.636"/>
<path fill="#F58363" d="M259.316,19.099c-6.188,0-11.916,2.063-16.502,5.537l-0.19-14.9V4.049c-0.651-5.32-6.813-3.868-6.813-3.868
	c-4.885,0.326-4.56,5.985-4.56,5.985v2.999v59.211c1.466,7.547,7.817,4.777,7.817,4.777c2.523-0.691,3.501-2.795,3.881-4.668
	c4.561,3.42,10.232,5.441,16.367,5.441c15.145,0,27.415-12.281,27.415-27.414C286.73,31.382,274.461,19.099,259.316,19.099
	 M259.316,62.636c-8.902,0-16.123-7.22-16.123-16.123c0-8.902,7.221-16.122,16.123-16.122s16.124,7.22,16.124,16.122
	C275.439,55.417,268.218,62.636,259.316,62.636"/>
<path fill="#F58363" d="M12.264,75.082v-3.23c-1.411-7.396-8.686-4.682-8.686-4.682C-1.198,68.472,0.186,75,0.186,75v2.863
	c1.9,20.873,20.52,17.711,20.52,17.711c19.244-1.33,17.778-15.77,17.778-15.77V23.538c-1.547-5.226-7.572-3.882-7.572-3.882
	c-4.669,0.666-5.401,5.456-5.401,5.456v50.919c0,8.876-6.46,7.764-6.46,7.764c-7.329-0.435-6.867-7.764-6.867-7.764L12.264,75.082z"
	/>
</svg>
