<svg xmlns="http://www.w3.org/2000/svg" width="521.332" height="157.679" viewBox="0 0 521.332 157.679"><path d="M58.413 157.68h33.125V31.433h-.468zM18.028 0l27.51 104.304h.45L73.502 0zM0 31.434V157.68h33.13L.456 31.433zM185.372 157.68c-15.823-7.2-25.278-21.983-25.278-46.09V0h-41.706v157.68h66.984zM329.384 157.68c-15.332-7.323-24.883-22.76-24.883-49.736v-58.74c0-26.343 9.09-41.66 23.777-49.204h-60.933v111.59c0 24.106-9.543 38.89-25.438 46.09h87.478zM445.494 157.68V0H384.57c14.688 7.543 23.765 22.86 23.765 49.204v.453h-31.427v-4.55c0-18.227-7.953-23.23-20.488-23.23-12.522 0-20.5 5.003-20.5 23.23v66.947c0 18.202 7.978 23.208 20.5 23.208 12.535 0 20.488-5.006 20.488-23.208v-10.938h31.427v6.83c0 26.977-9.52 42.412-24.87 49.734h62.03zM476.933 0h44.4v61.952h-44.4zM476.933 89.733h44.4v67.946h-44.4zM191.53 0v111.358c0 10.258 2.937 17.287 9.202 20.952 3.33 1.942 7.593 2.95 12.893 2.95 15.25 0 22.32-8.194 22.32-23.902V0h-44.414z"/></svg>