<svg xmlns="http://www.w3.org/2000/svg" width="189" height="66.536"><path fill="#243D86" d="M35.012.399c-8.784-1.556-17.313 1.553-23.15 7.429l-.053.15c0 .14.113.252.252.252l.117-.033c5.523-3.864 12.452-5.71 19.585-4.411 14.13 2.464 23.528 15.978 21.035 30.044-.608 3.477-1.894 6.642-3.65 9.39l.002.003-.05.15c0 .14.114.252.252.252.07 0 .132-.028.178-.073l.001.002c3.285-3.526 5.545-7.917 6.542-13.047 2.444-14.192-6.994-27.622-21.061-30.108z"/><path fill="#E41E2A" d="M6.075 16.017c-5.738 6.828-7.313 15.769-5.141 23.761l.104.123c.12.069.274.028.344-.092l.03-.118c-.583-6.716 1.28-13.64 5.973-19.167 9.198-11.003 25.6-12.386 36.534-3.195 2.708 2.266 4.805 4.961 6.308 7.857l.005-.002.104.119c.121.068.275.028.344-.091.034-.061.041-.128.026-.191h.001c-1.411-4.606-4.082-8.761-8.028-12.188-11.069-9.214-27.416-7.755-36.604 3.184z"/><path fill="#88191B" d="M5.133 48.886c3.042 8.383 10 14.217 18.009 16.333l.156-.028c.122-.068.163-.224.092-.344l-.085-.085c-6.108-2.852-11.174-7.928-13.615-14.757-4.928-13.467 2.073-28.362 15.502-33.238 3.315-1.21 6.698-1.682 9.958-1.535v-.001l.154-.033c.121-.069.163-.223.093-.346-.035-.058-.09-.099-.15-.115v-.001c-4.695-1.082-9.629-.846-14.57.859-13.513 4.977-20.424 19.865-15.544 33.291z"/><path fill="#72B344" d="M33.127 66.137c8.782 1.557 17.312-1.553 23.149-7.431l.054-.15c0-.14-.113-.252-.253-.252l-.116.033c-5.522 3.863-12.452 5.712-19.587 4.41-14.127-2.463-23.525-15.975-21.033-30.041.61-3.479 1.892-6.641 3.648-9.392l-.003-.002.051-.15c0-.139-.112-.252-.252-.252-.068 0-.132.028-.178.072-3.284 3.523-5.545 7.916-6.541 13.047-2.443 14.192 6.995 27.62 21.061 30.108z"/><path fill="#00733B" d="M62.064 50.519c5.739-6.829 7.311-15.771 5.14-23.764l-.103-.121c-.122-.069-.275-.029-.346.091l-.032.118c.586 6.715-1.279 13.641-5.972 19.167-9.197 11.005-25.598 12.388-36.534 3.195-2.708-2.267-4.805-4.959-6.308-7.855l-.004.002-.105-.119c-.12-.07-.275-.03-.344.093-.034.059-.043.127-.026.189 1.41 4.606 4.084 8.761 8.029 12.188 11.069 9.213 27.417 7.753 36.605-3.184z"/><path fill="#2992D0" d="M63.006 17.649c-3.044-8.384-10-14.218-18.01-16.334l-.156.029c-.122.07-.162.224-.092.345l.085.085c6.107 2.852 11.173 7.929 13.613 14.756 4.929 13.468-2.073 28.364-15.5 33.238-3.316 1.211-6.697 1.682-9.958 1.535v.004l-.154.031c-.121.069-.163.224-.093.346.033.059.088.099.15.116v.002c4.694 1.081 9.628.844 14.569-.86 13.514-4.98 20.423-19.868 15.546-33.293z"/><g fill="#fff"><path d="M91.636 40.961c-4.248 0-7.693-3.444-7.693-7.693 0-4.248 3.445-7.693 7.693-7.693 4.249 0 7.693 3.445 7.693 7.693 0 4.249-3.444 7.693-7.693 7.693zm0-22.386c-8.115 0-14.693 6.578-14.693 14.693s6.578 14.693 14.693 14.693c8.115 0 14.693-6.579 14.693-14.693s-6.578-14.693-14.693-14.693"/><path d="M122.343 42.592c.799 2.329 2.628 4.237 5.093 4.237h2.674l5.047-16.193c.841-2.317 1.352-4.209 1.371-4.209.023 0 .039 2.016.039 4.479v11.445c0 2.463 2.011 4.479 4.474 4.479h2.949v-23.066c0-2.465-2.01-4.48-4.477-4.48h-6.593l-4.277 12.502c-.689 2.276-1.553 5.418-1.571 5.42l-4.142-13.719h-.001c-.765-2.32-3.347-4.204-5.785-4.204h-7.402v23.066c0 2.463 2.02 4.479 4.482 4.479h2.801v-15.923c0-2.463.026-4.479.053-4.479.03 0 .55 1.879 1.342 4.19l3.923 11.976zm66.657-23.308h-2.984c-2.469 0-4.479 2.015-4.479 4.48v23.064h2.983c2.469 0 4.479-2.016 4.479-4.482v-23.062zm-12.432 14.014v-14.018h-2.799c-2.464 0-4.482 2.014-4.482 4.479v15.811c-.061-.044-.234-.339-.844-2.117l-6.3-14.297c-.888-2.166-3.338-3.876-5.659-3.876h-7.402v23.066c0 2.466 2.02 4.479 4.481 4.479h2.802v-15.803c0-2.461.025-4.478.054-4.478.028 0 0-.201.792 2.109l6.299 14.298c.888 2.164 3.339 3.873 5.659 3.873h7.402v-13.499l-.003-.027z"/></g></svg>