<?xml version="1.0" encoding="utf-8"?>
<!-- Generator: Adobe Illustrator 16.0.4, SVG Export Plug-In . SVG Version: 6.00 Build 0)  -->
<!DOCTYPE svg PUBLIC "-//W3C//DTD SVG 1.1//EN" "http://www.w3.org/Graphics/SVG/1.1/DTD/svg11.dtd">
<?xml-stylesheet type="text/css" href="./../_/dist/css/style.css" ?>
<svg version="1.1" id="Layer_1" xmlns="http://www.w3.org/2000/svg" xmlns:xlink="http://www.w3.org/1999/xlink" x="0px" y="0px"
	 width="460px" height="459.997px" viewBox="0 0 460 459.997" enable-background="new 0 0 460 459.997" xml:space="preserve">
<g id="spaceGO_horizontal__x28_boldGO_x29__2_">
	<g id="space_logo_6_">
		<circle fill="#00AFDB" cx="230" cy="229.998" r="228.596" class="spaceLogo--circle"/>
		<path fill="#FFFFFF" class="spaceLogo--text" d="M291.505,276.524l-0.318-0.443c-4.039-5.352-11.789-11.738-25.877-11.738
			c-23.393,0-35.622,18.655-35.622,37.087c0,21.389,13.77,35.218,35.088,35.218c7.701,0,13.66-1.697,18.961-3.547
			c0.238-0.098,0.473-0.193,0.797-0.324l0.189-0.079c0.033-0.021,0.084-0.043,0.137-0.06l0.738,2.955h11.545l-0.037-3.958
			c-0.051-9.329,0.055-16.769,0.123-22.186v-0.429c0.09-7.223,0.166-12.932-0.133-17.368
			C296.56,283.857,293.005,278.471,291.505,276.524z M283.946,319.674c-4.74,2.115-12.008,4.339-18.5,4.339
			c-14.363,0-22.602-8.278-22.602-22.717c0-12.175,7.072-24.447,22.857-24.447c9.232,0,16.008,4.946,17.686,12.926
			c0.336,1.466,0.559,4.128,0.559,6.636V319.674z M441.954,300.495c0-0.941-0.324-3.947-0.41-4.698
			c-1.711-19.561-13.996-31.722-32.031-31.722c-19.818,0-33.66,14.76-33.66,35.893c0,22.465,13.557,36.412,35.363,36.412
			c9.156,0,16.676-2.162,24.762-7.121c0.008,0.168,2.984-6.335,2.961-6.379c-0.117-0.19-4.365-7.351-4.365-7.351l-3.461,2.263
			c-6.338,4.127-12.9,6.222-19.49,6.222c-12.584,0-20.656-7.126-22.201-19.573h52.533V300.495z M389.907,292.06
			c2.494-9.838,9.652-15.474,19.723-15.474c9.578,0,15.643,5.203,18.023,15.474H389.907z M364.821,313.984l7.107,10.285l-2.91,2.3
			c-8.146,6.42-17.801,9.811-27.92,9.811c-21.48,0-35.357-14.294-35.357-36.412c0-21.025,14.871-36.286,35.357-36.286
			c11.098,0,19.51,3.398,27.312,11.026l2.971,2.886l-9.523,8.833l-2.689-2.667c-5.078-5.091-11.084-7.567-18.328-7.567
			c-14.227,0-21.67,11.633-21.67,23.117c0,15.616,8.285,24.572,22.715,24.572c6.559,0,13.354-2.549,19.654-7.37L364.821,313.984z
			 M144.895,316.078c0,9.446-4.986,20.704-28.779,20.704c-12.598,0-22.439-4.295-26.992-11.797l-1.748-2.908l9.986-8.325
			l2.414,3.767c2.91,4.516,8.238,6.619,16.736,6.619c15.346,0,15.346-5.092,15.346-7.268c0-5.006-4.229-8.126-15.072-11.122
			c-15.281-4.251-25.461-9.71-25.461-22.548c0-12.056,9.574-19.251,25.592-19.251c7.816,0,18.9,1.122,24.99,10.824l2.139,3.425
			l-10.834,6.438l-2.094-2.999c-2.529-3.628-7.174-5.311-14.605-5.311c-3.615,0-12.016,0.616-12.016,6.341
			c0,2.845,0,6.053,15.73,10.475C131.706,296.25,144.895,301.676,144.895,316.078z M186.624,264.61
			c-20.275,0-33.379,12.436-33.379,31.671v63.212h13.053l-0.025-3.961c-0.025-6.395-0.035-15.895-0.045-20.689l0.045-1.939
			c0.111,0.039,0.238,0.078,0.396,0.125c6.395,2.086,10.844,3.352,18.516,3.352c26.484,0,35.887-19.607,35.887-36.412
			C221.071,278.163,207.872,264.61,186.624,264.61z M185.715,323.881c-6.697,0-12.521-1.307-19.443-4.387V297.19
			c0-3.212,0.498-6.467,1.354-8.68c2.672-7.376,9.189-11.26,18.877-11.26c19.615,0,21.139,17.494,21.139,22.848
			C207.641,308.987,204.778,323.881,185.715,323.881z"/>
	</g>
</g>
</svg>
