<?xml version="1.0" encoding="UTF-8" standalone="no"?>
<!-- Generator: Adobe Illustrator 13.0.0, SVG Export Plug-In . SVG Version: 6.00 Build 14948)  -->

<svg
   xmlns:dc="http://purl.org/dc/elements/1.1/"
   xmlns:cc="http://creativecommons.org/ns#"
   xmlns:rdf="http://www.w3.org/1999/02/22-rdf-syntax-ns#"
   xmlns:svg="http://www.w3.org/2000/svg"
   xmlns="http://www.w3.org/2000/svg"
   xmlns:sodipodi="http://sodipodi.sourceforge.net/DTD/sodipodi-0.dtd"
   xmlns:inkscape="http://www.inkscape.org/namespaces/inkscape"
   version="1.0"
   id="Layer_1"
   x="0px"
   y="0px"
   width="192.84357"
   height="46.642879"
   viewBox="0 0 192.84357 46.642879"
   enable-background="new 0 0 200 50"
   xml:space="preserve"
   inkscape:version="0.48.1 "
   sodipodi:docname="AJAX.svg"><metadata
   id="metadata23"><rdf:RDF><cc:Work
       rdf:about=""><dc:format>image/svg+xml</dc:format><dc:type
         rdf:resource="http://purl.org/dc/dcmitype/StillImage" /></cc:Work></rdf:RDF></metadata><defs
   id="defs21" /><sodipodi:namedview
   pagecolor="#ffffff"
   bordercolor="#666666"
   borderopacity="1"
   objecttolerance="10"
   gridtolerance="10"
   guidetolerance="10"
   inkscape:pageopacity="0"
   inkscape:pageshadow="2"
   inkscape:window-width="1280"
   inkscape:window-height="1004"
   id="namedview19"
   showgrid="false"
   fit-margin-top="0"
   fit-margin-left="0"
   fit-margin-right="0"
   fit-margin-bottom="0"
   inkscape:zoom="3.6525801"
   inkscape:cx="70.444093"
   inkscape:cy="-7.9003171"
   inkscape:window-x="-8"
   inkscape:window-y="-8"
   inkscape:window-maximized="1"
   inkscape:current-layer="Layer_1" />
<polygon
   points="68.732,2.322 8.518,2.322 2.939,14.04 63.154,14.04 "
   id="polygon3"
   style="fill:#ef3e33"
   transform="translate(-2.939,-2.3101206)" />
<polygon
   points="41.106,19.825 27.164,48.952 10.656,48.952 24.611,19.825 "
   id="polygon5"
   style="fill:#ef3e33"
   transform="translate(-2.939,-2.3101206)" />
<path
   d="m 49.575,46.641879 5.652,-11.96 H 97.58 l 3.497,-6.76 c 0,0 -22.639,-0.009 -25.479,0 -3.479,0 -11.231,0.259 -13.124,-3.578 -1.242,-2.552 1.203,-6.829 1.203,-6.829 h 47.375 c 3.01,0 5.562,0.638 6.976,2.432 1.328,1.69 1.242,4.113 -0.775,7.976 -1.155,2.225 -4.174,9.028 -4.897,10.442 -0.707,1.439 -2.19,3.923 -5.984,5.708 -3.812,1.784 -6.902,2.569 -11.89,2.569 H 49.575 z"
   id="path7"
   inkscape:connector-curvature="0"
   style="fill:#ef3e33" />
<path
   d="m 66.358,11.729879 c 0,0 2.358,-6.3539996 7.717,-9.1569996 5.113,-2.68199999 15.443,-2.56099999 16.378,-2.56099999 H 129.78 L 124.235,11.729879 H 66.358 z"
   id="path9"
   inkscape:connector-curvature="0"
   style="fill:#ef3e33" />
<path
   d="m 132.324,11.729879 5.277,-11.71799959 h 37.146 c 0,0 15.037,-0.845 17.779,11.71799959 1.225,5.657 -1.483,10.425 -1.569,10.623 -0.086,0.164 -11.528,24.29 -11.528,24.29 H 162.84 l 12.821,-26.532 c 0,0 1.966,-3.173 0.621,-5.881 -1.312,-2.716 -5.26,-2.535 -5.57,-2.5 -0.329,0.017 -38.388,0 -38.388,0"
   id="path11"
   inkscape:connector-curvature="0"
   style="fill:#ef3e33" />
<polygon
   points="149.11,19.825 135.168,48.952 118.647,48.952 132.573,19.825 "
   id="polygon13"
   style="fill:#ef3e33"
   transform="translate(-2.939,-2.3101206)" />


</svg>