<?xml version="1.0" encoding="UTF-8" standalone="no"?>
<svg
   xmlns:dc="http://purl.org/dc/elements/1.1/"
   xmlns:cc="http://web.resource.org/cc/"
   xmlns:rdf="http://www.w3.org/1999/02/22-rdf-syntax-ns#"
   xmlns:svg="http://www.w3.org/2000/svg"
   xmlns="http://www.w3.org/2000/svg"
   xmlns:xlink="http://www.w3.org/1999/xlink"
   xmlns:sodipodi="http://sodipodi.sourceforge.net/DTD/sodipodi-0.dtd"
   xmlns:inkscape="http://www.inkscape.org/namespaces/inkscape"
   version="1.0"
   id="Layer_1"
   x="0px"
   y="0px"
   width="498"
   height="414"
   viewBox="0 0 540 612"
   enable-background="new 0 0 540 612"
   xml:space="preserve"
   sodipodi:version="0.32"
   inkscape:version="0.45.1"><defs
   id="defs200">
		<defs
   id="defs184">
			<path
   id="SVGID_22_"
   d="M 317.591,548.829 C 317.485,548.594 317.363,548.364 317.232,548.141 C 317.694,548.084 318.125,548.033 318.194,548.025 C 318.268,548.016 318.34,548.007 318.41,547.999 C 318.537,548.226 318.653,548.46 318.759,548.701 C 318.386,548.747 317.97,548.791 317.591,548.829" />
		</defs>
		
		
			<linearGradient
   id="SVGID_24_"
   gradientUnits="userSpaceOnUse"
   x1="0"
   y1="611.76172"
   x2="1"
   y2="611.76172"
   gradientTransform="matrix(15111.092,-26234.548,-26234.548,-15111.092,1.6047144e7,9266324.5)">
			<stop
   offset="0"
   style="stop-color:#00B6DD"
   id="stop191" />
			<stop
   offset="1"
   style="stop-color:#00728D"
   id="stop193" />
		</linearGradient>
		
	
		<defs
   id="defs155">
			<path
   id="SVGID_19_"
   d="M 301.927,547.496 C 302.004,547.491 308.123,538.014 317.968,545.351 C 318.973,544.382 320.357,543.05 321.048,542.383 C 314.824,541.561 305.538,541.02 301.927,547.496" />
		</defs>
		
		
			<linearGradient
   id="SVGID_21_"
   gradientUnits="userSpaceOnUse"
   x1="0"
   y1="611.90143"
   x2="1"
   y2="611.90143"
   gradientTransform="matrix(-2.4932,6.9662,6.9662,2.4932,-3948.416,-990.4556)">
			<stop
   offset="0"
   style="stop-color:#FFFFFF"
   id="stop162" />
			<stop
   offset="1"
   style="stop-color:#000000"
   id="stop164" />
		</linearGradient>
		
	
		<defs
   id="defs140">
			<path
   id="SVGID_16_"
   d="M 303.827,548.297 C 303.603,548.061 303.387,547.831 303.198,547.63 C 303.46,547.237 303.753,546.87 304.072,546.529 L 304.609,547.233 C 304.321,547.562 304.059,547.917 303.827,548.297" />
		</defs>
		
		
			<linearGradient
   id="SVGID_18_"
   gradientUnits="userSpaceOnUse"
   x1="0"
   y1="612.42767"
   x2="1"
   y2="612.42767"
   gradientTransform="matrix(15111.092,-26234.548,-26234.548,-15111.092,1.6047144e7,9266324.5)">
			<stop
   offset="0"
   style="stop-color:#00B6DD"
   id="stop147" />
			<stop
   offset="1"
   style="stop-color:#00728D"
   id="stop149" />
		</linearGradient>
		
	
		<defs
   id="defs119">
			<path
   id="SVGID_13_"
   d="M 312.928,544.833 C 312.559,544.723 312.188,544.642 311.813,544.587 C 311.924,544.283 312.016,544.03 312.086,543.837 L 312.389,543.794 C 312.685,543.847 312.982,543.916 313.276,544 L 312.928,544.833" />
		</defs>
		
		
			<linearGradient
   id="SVGID_15_"
   gradientUnits="userSpaceOnUse"
   x1="0"
   y1="612.11621"
   x2="1"
   y2="612.11621"
   gradientTransform="matrix(15111.092,-26234.548,-26234.548,-15111.092,1.6047144e7,9266324.5)">
			<stop
   offset="0"
   style="stop-color:#00B6DD"
   id="stop126" />
			<stop
   offset="1"
   style="stop-color:#00728D"
   id="stop128" />
		</linearGradient>
		
	
		<defs
   id="defs96">
			<path
   id="SVGID_10_"
   d="M 312.908,560.052 C 312.372,560.052 312.148,559.65 312.075,559.472 C 312.16,559.484 312.247,559.488 312.334,559.488 C 312.439,559.488 312.546,559.482 312.656,559.47 C 312.656,559.47 314.623,559.234 314.678,559.223 C 315.393,559.092 315.776,558.787 316.204,557.936 C 316.286,557.78 316.66,556.879 317.14,555.706 C 317.341,555.378 317.518,555.033 317.67,554.672 C 317.844,554.257 317.977,553.836 318.071,553.412 C 318.514,552.314 318.956,551.22 319.289,550.391 C 319.423,551.068 319.467,551.755 319.422,552.443 C 318.853,553.913 318.134,555.755 317.61,557.089 C 316.513,558.47 315.017,559.484 313.351,560.032 C 313.204,560.039 313.071,560.046 312.96,560.051 C 312.944,560.051 312.926,560.052 312.908,560.052" />
		</defs>
		
		
			<linearGradient
   id="SVGID_12_"
   gradientUnits="userSpaceOnUse"
   x1="0"
   y1="611.68359"
   x2="1"
   y2="611.68359"
   gradientTransform="matrix(15111.092,-26234.548,-26234.548,-15111.092,1.6047144e7,9266324.5)">
			<stop
   offset="0"
   style="stop-color:#00B6DD"
   id="stop103" />
			<stop
   offset="1"
   style="stop-color:#00728D"
   id="stop105" />
		</linearGradient>
		
	
		<defs
   id="defs67">
			<path
   id="SVGID_7_"
   d="M 307.594,560.038 C 307.503,560.008 307.413,559.976 307.323,559.943 C 306.997,559.824 306.681,559.686 306.379,559.535 C 306.478,559.276 306.578,558.984 306.667,558.713 C 306.675,558.692 306.683,558.668 306.691,558.647 C 307.062,558.837 307.456,559.001 307.87,559.132 C 307.878,559.134 307.886,559.137 307.893,559.139 C 307.79,559.45 307.686,559.758 307.594,560.038" />
		</defs>
		
		
			<linearGradient
   id="SVGID_9_"
   gradientUnits="userSpaceOnUse"
   x1="0"
   y1="611.96881"
   x2="1"
   y2="611.96881"
   gradientTransform="matrix(15111.092,-26234.548,-26234.548,-15111.092,1.6047144e7,9266324.5)">
			<stop
   offset="0"
   style="stop-color:#00B6DD"
   id="stop74" />
			<stop
   offset="1"
   style="stop-color:#00728D"
   id="stop76" />
		</linearGradient>
		
	
		<defs
   id="defs34">
			<path
   id="SVGID_4_"
   d="M 312.086,543.837 C 312.098,543.806 312.108,543.777 312.118,543.749 C 312.208,543.762 312.299,543.777 312.389,543.794 L 312.086,543.837 M 313.53,545.039 C 313.331,544.962 313.13,544.893 312.927,544.833 L 313.275,544 C 313.485,544.06 313.695,544.128 313.903,544.204 C 314.366,544.374 314.807,544.579 315.224,544.814 C 314.564,544.902 313.973,544.981 313.53,545.039 M 304.609,547.233 L 304.072,546.529 C 305.252,545.265 306.79,544.373 308.467,543.942 C 308.019,544.124 307.536,544.466 307.29,545.123 C 307.289,545.126 307.269,545.177 307.237,545.266 C 306.244,545.73 305.343,546.395 304.609,547.233 M 317.771,549.257 C 317.714,549.112 317.656,548.969 317.59,548.829 C 317.969,548.791 318.385,548.747 318.757,548.7 C 318.76,548.706 318.762,548.711 318.765,548.717 C 318.82,548.841 318.87,548.966 318.917,549.091 L 317.771,549.257 M 303.045,556.533 C 302.824,556.182 302.628,555.814 302.46,555.429 C 302.003,554.384 301.779,553.278 301.785,552.168 C 301.787,551.929 301.8,551.69 301.823,551.451 C 302.133,551.742 302.43,552.023 302.709,552.285 C 302.721,553.385 302.986,554.449 303.467,555.408 C 303.336,555.759 303.193,556.139 303.045,556.533 M 317.611,557.088 C 318.134,555.753 318.853,553.911 319.423,552.442 C 319.366,553.331 319.159,554.216 318.803,555.072 C 318.496,555.808 318.092,556.484 317.611,557.088 M 306.379,559.535 C 306.375,559.533 306.371,559.531 306.367,559.529 C 306.443,559.323 306.545,559.046 306.667,558.713 C 306.578,558.984 306.478,559.276 306.379,559.535 M 310.45,560.498 C 309.498,560.498 308.534,560.349 307.594,560.038 C 307.686,559.758 307.79,559.45 307.894,559.139 C 308.681,559.389 309.485,559.508 310.278,559.508 C 310.759,559.508 311.239,559.464 311.708,559.379 C 311.83,559.427 311.952,559.456 312.076,559.472 C 312.149,559.65 312.373,560.052 312.909,560.052 C 312.927,560.052 312.945,560.051 312.963,560.05 C 313.073,560.045 313.206,560.038 313.354,560.031 C 312.424,560.336 311.443,560.498 310.45,560.498" />
		</defs>
		
		
			<linearGradient
   id="SVGID_6_"
   gradientUnits="userSpaceOnUse"
   x1="0"
   y1="612"
   x2="1"
   y2="612"
   gradientTransform="matrix(15111.092,-26234.548,-26234.548,-15111.092,1.6047144e7,9266324.5)">
			<stop
   offset="0"
   style="stop-color:#00BDF0"
   id="stop41" />
			<stop
   offset="0.2062"
   style="stop-color:#00B6E7"
   id="stop43" />
			<stop
   offset="0.4697"
   style="stop-color:#00A9D6"
   id="stop45" />
			<stop
   offset="0.7631"
   style="stop-color:#0096BE"
   id="stop47" />
			<stop
   offset="1"
   style="stop-color:#0084A9"
   id="stop49" />
		</linearGradient>
		
	
		<defs
   id="defs13">
			<path
   id="SVGID_1_"
   d="M 301.172,561.464 C 300.703,561.38 300.226,561.287 299.742,561.185 C 300.271,560.749 301.154,560.022 301.984,559.336 C 301.575,560.409 301.251,561.258 301.172,561.464 M 307.26,562.057 C 305.455,562.057 303.479,561.869 301.34,561.494 C 301.92,561.44 303.7,561.281 304.369,561.197 C 304.997,561.119 305.445,560.832 305.747,560.542 C 306.091,560.721 306.45,560.883 306.822,561.025 C 308.034,561.488 309.286,561.707 310.519,561.707 C 310.812,561.707 311.103,561.694 311.393,561.67 C 310.135,561.928 308.757,562.057 307.26,562.057" />
		</defs>
		
		
			<linearGradient
   id="SVGID_3_"
   gradientUnits="userSpaceOnUse"
   x1="0"
   y1="612.16022"
   x2="1"
   y2="612.16022"
   gradientTransform="matrix(2098.4716,-11891.286,-11891.286,-2098.4716,7271373.2,1309843.7)">
			<stop
   offset="0"
   style="stop-color:#FFFFFF"
   id="stop20" />
			<stop
   offset="1"
   style="stop-color:#000000"
   id="stop22" />
		</linearGradient>
		
	<linearGradient
   inkscape:collect="always"
   xlink:href="#SVGID_21_"
   id="linearGradient2607"
   gradientUnits="userSpaceOnUse"
   gradientTransform="matrix(-3959.3684,11062.792,11062.792,3959.3684,-6761603.9,-2449394)"
   x1="0"
   y1="611.90143"
   x2="1"
   y2="611.90143" /><linearGradient
   inkscape:collect="always"
   xlink:href="#SVGID_24_"
   id="linearGradient2663"
   gradientUnits="userSpaceOnUse"
   gradientTransform="matrix(275.88473,-478.96679,-478.96679,-275.88473,293238.68,169478.53)"
   x1="0"
   y1="611.76172"
   x2="1"
   y2="611.76172" /><linearGradient
   inkscape:collect="always"
   xlink:href="#SVGID_21_"
   id="linearGradient2673"
   gradientUnits="userSpaceOnUse"
   gradientTransform="matrix(-72.286589,201.97451,201.97451,72.286589,-123182.94,-44416.522)"
   x1="0"
   y1="611.90143"
   x2="1"
   y2="611.90143" /><linearGradient
   inkscape:collect="always"
   xlink:href="#SVGID_18_"
   id="linearGradient2676"
   gradientUnits="userSpaceOnUse"
   gradientTransform="matrix(275.88473,-478.96679,-478.96679,-275.88473,293238.68,169478.53)"
   x1="0"
   y1="612.42767"
   x2="1"
   y2="612.42767" /><linearGradient
   inkscape:collect="always"
   xlink:href="#SVGID_15_"
   id="linearGradient2682"
   gradientUnits="userSpaceOnUse"
   gradientTransform="matrix(275.88473,-478.96679,-478.96679,-275.88473,293238.68,169478.53)"
   x1="0"
   y1="612.11621"
   x2="1"
   y2="612.11621" /><linearGradient
   inkscape:collect="always"
   xlink:href="#SVGID_12_"
   id="linearGradient2689"
   gradientUnits="userSpaceOnUse"
   gradientTransform="matrix(275.88473,-478.96679,-478.96679,-275.88473,293238.68,169478.53)"
   x1="0"
   y1="611.68359"
   x2="1"
   y2="611.68359" /><linearGradient
   inkscape:collect="always"
   xlink:href="#SVGID_9_"
   id="linearGradient2699"
   gradientUnits="userSpaceOnUse"
   gradientTransform="matrix(275.88473,-478.96679,-478.96679,-275.88473,293238.68,169478.53)"
   x1="0"
   y1="611.96881"
   x2="1"
   y2="611.96881" /><linearGradient
   inkscape:collect="always"
   xlink:href="#SVGID_6_"
   id="linearGradient2708"
   gradientUnits="userSpaceOnUse"
   gradientTransform="matrix(275.88473,-478.96679,-478.96679,-275.88473,293238.68,169478.53)"
   x1="0"
   y1="612"
   x2="1"
   y2="612" /><linearGradient
   inkscape:collect="always"
   xlink:href="#SVGID_3_"
   id="linearGradient2714"
   gradientUnits="userSpaceOnUse"
   gradientTransform="matrix(38.312008,-217.10041,-217.10041,-38.312008,133018.54,24216.261)"
   x1="0"
   y1="612.16022"
   x2="1"
   y2="612.16022" /></defs>
		<path
   id="path5"
   d="M 638.08695,14.640309 C 224.58169,-40.940222 99.15581,73.6131 47.37343,159.60781 C 39.284238,172.42294 32.093843,186.04988 26.005209,200.37267 C -15.803406,299.06654 3.4192766,406.42946 66.654097,483.98706 L -48.971976,579.37569 C 262.8821,651.83042 413.73527,590.01628 489.87219,525.62175 C 527.41878,496.01936 558.03592,457.25505 577.57753,411.0974 C 620.92281,308.80835 598.7138,197.06741 529.76724,119.07491 L 638.08695,14.640309"
   clip-path="none" /><path
   id="path7"
   d="M 638.08695,14.640309 C 224.58169,-40.940222 99.15581,73.6131 47.37343,159.60781 C 39.284238,172.42294 32.093843,186.04988 26.005209,200.37267 C -15.803406,299.06654 3.4192766,406.42946 66.654097,483.98706 L -48.971976,579.37569 C 262.8821,651.83042 413.73527,590.01628 489.87219,525.62175 C 527.41878,496.01936 558.03592,457.25505 577.57753,411.0974 C 620.92281,308.80835 598.7138,197.06741 529.76724,119.07491 L 638.08695,14.640309"
   clip-path="none" /><path
   id="path9"
   d="M 521.67807,308.51842 C 521.67807,430.00117 423.18715,528.5501 301.64641,528.5501 C 180.10566,528.5501 81.527756,430.03016 81.527756,308.51842 C 81.527756,186.97767 180.10566,88.486759 301.64641,88.486759 C 423.18715,88.486759 521.67807,186.94868 521.67807,308.51842"
   clip-path="none" /><path
   style="fill:url(#linearGradient2714)"
   clip-path="none"
   d="M 51.026511,517.35793 C 26.9619,537.24745 1.3602225,558.3259 -13.977331,570.96706 C 0.055515332,573.9244 13.88547,576.62062 27.483414,579.05609 C 29.773913,573.08342 39.168177,548.46794 51.026511,517.35793 z M 160.12867,552.32428 C 151.37263,560.7324 138.38378,569.05359 120.17586,571.31507 C 100.77921,573.75054 49.17086,578.36051 32.354627,579.92616 C 94.371721,590.79872 151.66266,596.24914 203.99592,596.24914 C 247.39918,596.24914 287.35258,592.50934 323.8264,585.02902 C 315.41829,585.72484 306.98064,586.10161 298.48555,586.10163 C 262.73656,586.10163 226.43708,579.75203 191.29696,566.32804 C 180.51138,562.21095 170.10243,557.51411 160.12867,552.32428 z "
   id="polygon24" /><path
   id="path26"
   d="M 412.31459,45.112488 C 263.08505,-11.830753 92.60328,58.56547 31.600956,202.54718 C -29.488345,346.47091 42.038614,509.35637 191.29715,566.32859 C 340.55568,623.3588 510.97946,552.9046 572.06877,408.9519 C 633.12906,264.99918 561.60212,102.11369 412.31459,45.112488 M 466.2425,372.62305 C 426.23147,463.80758 318.89754,507.81973 226.2923,471.57787 C 133.74506,435.42295 89.993869,332.43805 128.75817,240.93457 C 167.81242,148.79324 275.61024,103.27344 369.37522,139.80525 C 463.16919,176.27907 506.45649,280.82962 466.2425,372.62305"
   clip-path="none" /><path
   style="fill:#ffffff"
   id="path28"
   d="M 560.61634,400.8627 C 504.31097,538.6978 342.78818,607.8183 199.82124,555.22411 C 56.941283,502.65886 -13.280968,348.38448 43.053398,210.54939 C 99.358767,72.772288 260.88155,3.6227874 403.84849,56.187994 C 546.69945,108.72423 616.92172,263.0856 560.61634,400.8627 M 374.71002,127.28006 C 273.84164,88.051856 157.89664,137.05087 115.97204,236.06367 C 74.279394,334.4676 121.36483,445.19376 220.84153,484.13204 C 320.46319,523.04133 435.82831,475.69494 478.82568,377.69692 C 522.14197,278.97404 475.63638,166.59524 374.71002,127.28006"
   clip-path="none" /><path
   style="fill:#0084a9"
   id="path30"
   d="M 547.68524,396.13677 C 494.16323,527.0714 340.64266,592.71269 204.9241,542.78587 C 69.11855,492.91706 2.4335027,346.23896 55.926517,215.33331 C 109.44851,84.369673 262.91109,18.786387 398.68764,68.684194 C 534.46419,118.61099 601.20723,265.23113 547.68524,396.13677 M 382.24833,109.62302 C 272.36297,65.089006 139.7757,122.35117 95.212694,233.25129 C 49.895849,345.94902 108.28877,466.79394 220.81253,502.51394 C 328.81331,536.92921 454.67409,478.33336 498.13534,374.53662 C 541.97352,269.92807 488.24857,152.70736 382.24833,109.62302"
   clip-path="none" /><path
   style="fill:url(#linearGradient2708)"
   clip-path="none"
   d="M 344.8466,65.436475 C 344.55666,66.248295 344.26627,67.089126 343.91834,67.987905 L 352.70343,66.741292 C 350.09401,66.248405 347.45601,65.813411 344.8466,65.436475 z M 238.99136,71.032276 C 190.36927,83.528477 145.77711,109.39037 111.56478,146.03816 L 127.13409,166.4496 C 148.41532,142.15305 174.53842,122.87254 203.32896,109.41955 C 204.25676,106.83913 204.83699,105.36045 204.86598,105.27347 C 211.99839,86.22474 226.00227,76.309108 238.99136,71.032276 z M 378.39174,72.713646 L 368.30241,96.865508 C 374.18809,98.605118 380.01559,100.60537 385.7853,102.83786 C 398.62942,101.15624 415.76462,98.865811 434.90032,96.314381 C 422.81003,89.500904 410.02377,83.557287 396.59978,78.628381 C 390.56913,76.424876 384.48037,74.453256 378.39174,72.713646 z M 537.33406,208.98294 C 526.54848,210.34564 514.48764,211.62161 503.49909,212.72336 C 505.41266,216.78245 507.09424,220.92843 508.74688,225.13249 L 541.97308,220.31946 C 540.61037,216.69527 539.16092,213.07108 537.56628,209.47588 C 537.4793,209.30192 537.42104,209.1569 537.33406,208.98294 z M 46.358408,288.74422 C 45.691549,295.67367 45.314704,302.60334 45.256702,309.53278 C 45.082748,341.71557 51.577127,373.7824 64.827164,404.0806 C 69.698067,415.2431 75.381028,425.91258 81.788589,436.0893 C 86.079629,424.66586 90.225552,413.64857 94.0237,403.47184 C 80.077831,375.66708 72.394641,344.81803 72.046715,312.92518 C 63.957541,305.32888 55.346397,297.18133 46.358408,288.74422 z M 556.64382,317.4769 C 540.11752,360.06835 519.27146,413.47433 504.10786,452.18065 C 518.05373,434.66858 529.76697,415.06919 538.66798,393.72997 C 548.98967,368.91154 554.99118,343.25212 556.64382,317.4769 z M 186.80286,499.29538 C 183.26566,508.9502 180.30857,516.98108 178.10507,522.95373 C 178.22104,523.01173 178.33655,523.06975 178.45252,523.12774 C 181.32288,515.61843 184.22244,507.15263 186.80286,499.29538 z M 222.37797,511.6463 C 219.36264,520.66329 216.347,529.59356 213.6796,537.71175 C 240.93349,546.72871 268.88344,551.04856 296.48525,551.04856 C 325.2758,551.04856 353.71849,546.35165 380.68244,537.50864 C 376.3914,537.7116 372.5352,537.91424 369.34592,538.0592 C 368.82403,538.08819 368.30226,538.11738 367.78037,538.1174 C 352.23986,538.1174 345.74503,526.46231 343.62851,521.30146 C 340.03332,520.83757 336.49615,519.99624 332.95895,518.60454 C 319.36099,521.06899 305.44408,522.34497 291.49821,522.34497 C 268.50637,522.34497 245.19585,518.89468 222.37797,511.6463 z "
   id="polygon51" /><path
   id="path53"
   d="M 206.72169,559.31218 C 197.12484,559.31218 166.13079,547.25088 169.2331,542.84387 C 169.37807,542.6119 169.55203,542.37998 169.69699,542.17701 C 179.35183,547.04792 189.38358,551.39696 199.82124,555.2531 C 202.28569,556.12288 204.72114,557.0217 207.18559,557.86249 C 206.98263,558.32642 206.83766,558.81929 206.72169,559.31218"
   clip-path="none" /><path
   style="fill:#c9cdd3"
   id="path55"
   d="M 207.15659,557.80451 C 204.69215,556.99271 202.25669,556.12288 199.79224,555.22411 C 189.35458,551.36797 179.32284,546.98993 169.69699,542.11903 C 170.62478,540.69837 171.61056,538.87177 172.68332,536.69724 C 172.97326,536.17536 173.29219,535.74047 173.52414,535.30557 C 173.55313,535.21859 173.87206,534.40676 174.42294,532.95707 C 174.82884,532.00031 175.23475,531.01453 175.69865,529.97076 C 185.00556,534.72567 194.74737,539.0457 204.9241,542.72789 C 207.04062,543.51071 209.15715,544.26457 211.27367,544.98941 C 209.70802,549.77334 208.31633,554.12233 207.15659,557.80451"
   clip-path="none" /><path
   style="fill:#00728d"
   id="path57"
   d="M 211.27367,545.0184 C 209.15715,544.32255 207.04062,543.53972 204.8951,542.78587 C 194.77637,539.0457 185.00556,534.81267 175.66965,530.05773 C 176.59745,527.88324 177.49625,525.56377 178.45303,523.1573 C 187.23806,527.56429 196.37101,531.53641 205.82289,534.98664 C 208.43231,535.9434 211.04172,536.87121 213.68013,537.71204 C 212.83932,540.23444 212.0275,542.6699 211.27367,545.0184"
   clip-path="none" /><path
   id="path59"
   d="M 230.43837,487.58226 C 227.24909,486.50951 224.03081,485.37875 220.87052,484.13204 C 212.37543,480.79777 204.25725,476.94166 196.54497,472.65062 C 196.66095,472.30267 196.77692,472.01276 196.8929,471.69381 L 231.16321,485.46575 C 230.90227,486.1616 230.67032,486.82846 230.43837,487.58226"
   clip-path="none" /><path
   style="fill:#c9cdd3"
   id="path61"
   d="M 224.98759,503.81861 C 223.59591,503.41272 222.20422,502.97781 220.81253,502.54293 C 210.08494,499.12168 199.82124,494.94661 190.13741,490.0757 C 192.10897,484.62492 194.28348,478.76825 196.51598,472.59263 C 204.25725,476.91266 212.34643,480.73982 220.84153,484.07405 C 224.00182,485.32077 227.2201,486.4515 230.43837,487.52426 C 228.66977,492.80111 226.87217,498.28088 224.98759,503.81861"
   clip-path="none" /><path
   style="fill:#00728d"
   id="path63"
   d="M 222.37818,511.67588 C 222.14623,511.58889 221.91428,511.5309 221.71133,511.44392 C 209.73701,507.58777 198.28458,502.86184 187.528,497.35308 C 188.36881,495.0336 189.26761,492.59814 190.1954,490.1047 C 199.90822,494.9756 210.14292,499.15067 220.84153,502.57192 C 222.23321,503.0358 223.6249,503.41272 225.04558,503.8476 C 224.14678,506.42804 223.24799,509.06645 222.37818,511.67588"
   clip-path="none" /><path
   style="fill:url(#linearGradient2699)"
   clip-path="none"
   d="M 187.49892,497.38181 C 187.26697,497.99069 187.03481,498.68652 186.80286,499.29538 C 184.22244,507.15261 181.32288,515.61843 178.45252,523.12774 C 187.20856,527.50575 196.37089,531.50698 205.82277,534.95721 C 208.43218,535.91399 211.04119,536.84194 213.6796,537.71175 C 216.347,529.59356 219.36254,520.66329 222.34887,511.6463 C 222.14592,511.58832 221.91386,511.50118 221.68191,511.44319 C 209.67861,507.64504 198.2555,502.89058 187.49892,497.38181 z "
   id="polygon78" /><path
   id="path80"
   d="M 443.74354,533.88488 C 457.10955,526.14363 469.8087,517.35859 481.75403,507.52978 C 474.44766,518.95325 457.22552,532.34821 450.67299,533.27602 C 449.45526,533.44999 447.04879,533.65292 443.74354,533.88488"
   clip-path="none" /><path
   style="fill:#c9cdd3"
   id="path82"
   d="M 410.22706,535.9434 C 441.51104,522.1135 470.06963,502.48493 494.04726,477.92742 C 488.82843,491.11946 485.23325,500.25241 484.13148,503.00681 C 483.55162,504.45646 482.7398,505.99314 481.72502,507.55878 C 469.8087,517.35859 457.10955,526.17262 443.77253,533.88488 C 435.97329,534.49375 423.33212,535.21859 410.22706,535.9434"
   clip-path="none" /><path
   style="fill:#00728d"
   id="path84"
   d="M 380.65369,537.48008 C 428.95686,521.56263 472.33114,492.19225 504.137,452.21021 C 500.36785,461.80705 496.97561,470.50508 494.01827,477.92742 C 470.09864,502.48493 441.51104,522.1135 410.22706,535.9434 C 399.96336,536.46532 389.40972,537.04518 380.65369,537.48008"
   clip-path="none" /><path
   style="fill:#00728d"
   id="path86"
   d="M 490.48107,412.0832 C 498.7732,391.78773 508.1671,368.65092 517.53199,345.57211 C 514.74862,357.86534 510.89249,370.07161 505.8766,382.10391 C 501.4696,392.57057 496.30875,402.57331 490.48107,412.0832"
   clip-path="none" /><path
   id="path88"
   d="M 577.08465,264.12937 C 575.83793,256.01119 574.18529,247.951 572.18473,240.00678 C 579.69406,240.03577 584.8259,241.97834 582.99931,247.86402 C 582.30348,250.03853 580.21594,255.77924 577.08465,264.12937"
   clip-path="none" /><path
   style="fill:#c9cdd3"
   id="path90"
   d="M 565.95114,293.29683 C 565.31327,276.33564 562.84884,259.57739 558.67377,243.31204 C 558.96371,242.5872 559.28264,241.86236 559.54357,241.16652 C 563.8926,240.47068 568.27061,239.97779 572.03977,239.97779 C 572.09776,239.97779 572.12675,239.97779 572.15574,239.97779 C 574.18529,247.92201 575.83793,255.9822 577.08465,264.10038 C 574.1563,271.84164 570.35815,281.8444 565.95114,293.29683"
   clip-path="none" /><path
   style="fill:#00728d"
   id="path92"
   d="M 556.64422,317.41942 C 557.97792,297.52988 556.64422,277.55336 552.7881,257.95376 C 554.90461,252.67694 556.90517,247.74804 558.67377,243.31204 C 562.84884,259.57739 565.31327,276.33564 565.95114,293.29683 C 563.10977,300.80615 559.94948,308.89533 556.64422,317.41942"
   clip-path="none" /><path
   style="fill:url(#linearGradient2689)"
   clip-path="none"
   d="M 552.75903,258.01124 C 543.1042,282.04685 530.2888,313.76597 517.44467,345.60083 C 514.71929,357.89407 510.8632,370.09984 505.81833,382.13215 C 501.41132,392.5988 496.27923,402.60158 490.45155,412.11145 C 476.53467,446.12082 465.69156,472.24427 463.31408,476.76726 C 450.90486,501.44073 439.80005,510.28378 419.0697,514.08193 C 417.47506,514.40084 360.44501,521.24328 360.44501,521.24328 C 357.25573,521.59118 354.1531,521.76532 351.10879,521.7653 C 348.58635,521.7653 346.06386,521.64937 343.59941,521.30146 C 345.71594,526.46231 352.21076,538.11738 367.75127,538.1174 C 368.27316,538.1174 368.7953,538.0883 369.2592,538.0883 C 372.47748,537.94334 376.3331,537.7407 380.59515,537.53774 C 428.89831,521.6493 472.27289,492.24978 504.07875,452.20975 C 519.27135,413.53242 540.1174,360.12644 556.61471,317.506 C 557.91942,297.55848 556.64418,277.63984 552.75903,258.01124 z "
   id="polygon107" /><path
   id="path109"
   d="M 320.05728,133.51366 C 320.69514,131.74506 321.33299,129.97645 321.97085,128.23685 C 323.30455,128.38181 324.66724,128.52678 326.00094,128.70074 C 324.8412,130.00545 323.73945,131.28116 322.66669,132.58587 L 320.05728,133.51366"
   clip-path="none" /><path
   id="path111"
   d="M 326.00094,128.72973 C 324.66724,128.55577 323.30455,128.38181 321.97085,128.23685 C 323.62348,123.74285 325.18913,119.36483 326.69679,115.18978 C 330.72688,115.71166 334.699,116.29152 338.6711,117.04536 C 334.11912,120.49558 329.79909,124.52568 326.00094,128.72973"
   clip-path="none" /><path
   style="fill:#c9cdd3"
   id="path113"
   d="M 382.30632,63.262419 C 381.72645,63.088448 381.11758,62.914494 380.56671,62.769532 L 382.62525,62.421607 L 382.30632,63.262419 M 338.6711,117.04536 C 334.699,116.32051 330.72688,115.68266 326.69679,115.21877 C 329.13224,108.55025 331.42273,102.31666 333.51026,96.575951 C 344.23785,98.083604 354.93646,100.46108 365.49009,103.67935 L 364.70727,105.59291 C 363.37357,105.76689 362.47476,105.88285 362.03986,105.94084 C 354.64652,106.92661 346.38337,111.21765 338.6711,117.04536"
   clip-path="none" /><path
   style="fill:#00728d"
   id="path115"
   d="M 378.3632,72.685293 C 369.86811,70.24985 361.28603,68.307276 352.67496,66.712646 L 380.56671,62.740522 C 381.14658,62.914494 381.72645,63.088448 382.30632,63.262419 L 378.3632,72.685293 M 365.49009,103.67935 C 354.96545,100.43207 344.29584,98.083604 333.51026,96.54694 C 334.35107,94.198475 335.19189,91.907993 336.0037,89.733481 C 346.84727,91.32813 357.63285,93.705588 368.30246,96.865874 L 365.49009,103.67935"
   clip-path="none" /><path
   style="fill:url(#linearGradient2682)"
   clip-path="none"
   d="M 352.70343,66.741292 L 343.91834,67.987905 C 341.8888,73.58367 339.22159,80.918661 336.00332,89.732696 C 346.87588,91.327345 357.63234,93.67623 368.33094,96.865508 L 378.42084,72.713646 C 369.89675,70.278185 361.2855,68.277937 352.70343,66.741292 z "
   id="polygon130" /><path
   id="path132"
   d="M 69.901378,160.68057 C 69.11855,159.83976 68.509676,159.17291 68.103784,158.79599 C 67.233979,157.89719 66.364156,156.99839 65.494369,156.18658 L 91.878442,120.26363 L 97.039286,127.04811 C 87.181498,137.42778 78.077547,148.67726 69.901378,160.68057 M 125.59788,219.65335 C 125.22097,219.27643 124.87305,218.89951 124.49613,218.49361 C 130.23684,207.93997 136.90535,198.05319 144.32768,188.89124 L 150.32934,196.74848 L 125.59788,219.65335"
   clip-path="none" /><path
   style="fill:#c9cdd3"
   id="path134"
   d="M 79.498223,170.85729 C 75.29416,166.42128 71.959903,162.88407 69.901378,160.65158 C 78.077547,148.67726 87.21049,137.45678 97.097272,127.04811 L 105.41841,137.94966 C 95.937532,148.15538 87.268476,159.11492 79.498223,170.85729 M 124.49613,218.49361 C 119.85717,213.59371 114.98626,208.43286 110.11536,203.27202 C 116.6099,192.51543 124.00324,182.33871 132.15041,172.94482 L 144.32768,188.92024 C 136.87635,198.05319 130.23684,207.93997 124.49613,218.49361"
   clip-path="none" /><path
   style="fill:#00728d"
   id="path136"
   d="M 86.195718,177.98969 C 83.789259,175.40926 81.527756,173.0318 79.498223,170.82829 C 87.268476,159.11492 95.937532,148.15538 105.41841,137.97866 L 111.56503,146.00986 C 102.3161,155.92564 93.850002,166.56625 86.195718,177.98969 M 110.08636,203.30101 C 108.23078,201.30046 106.31721,199.27092 104.43263,197.32835 C 111.18811,186.28183 118.78441,175.98914 127.13454,166.45027 L 132.09243,173.0028 C 123.97425,182.33871 116.6099,192.48644 110.08636,203.30101"
   clip-path="none" /><path
   style="fill:url(#linearGradient2676)"
   clip-path="none"
   d="M 111.56478,146.03816 C 102.31586,155.92494 93.820798,166.56569 86.224495,177.96013 C 91.704267,183.78783 97.966511,190.4565 104.46106,197.29897 C 111.18755,186.28144 118.78397,175.98846 127.13409,166.4496 L 111.56478,146.03816 z "
   id="polygon151" /><path
   style="fill:url(#linearGradient2673)"
   clip-path="none"
   d="M 418.77702,11.834211 C 272.80652,11.691878 121.76632,44.253966 49.377676,174.06795 L 49.384523,174.0708 C 52.042318,173.25596 229.36675,-100.58077 514.4585,111.88426 C 543.59696,83.789572 583.72404,45.169797 603.75855,25.831127 C 548.07108,18.476527 483.92885,11.897727 418.77702,11.834211 z "
   id="polygon166" /><path
   id="path168"
   d="M 362.03986,105.96983 C 346.78928,107.88341 327.42163,124.26473 318.05673,138.96444 C 336.11968,89.385556 348.41292,55.60813 348.41292,55.60813 C 348.35493,55.60813 274.53748,63.755306 260.41765,65.552901 C 246.3558,67.350495 216.4925,74.308933 204.86611,105.274 C 204.54718,106.08582 152.7068,248.15395 152.7068,248.15395 C 145.89333,241.42746 75.091215,166.16034 68.103784,158.79599 C 49.721896,139.74726 33.601514,136.67395 11.450484,138.7035 C -10.729557,140.64606 -98.086955,153.20025 -98.086955,153.20025 C -98.086955,153.20025 68.97357,309.64916 112.81175,351.57376 C 102.86698,382.1329 26.933017,580.47744 26.933017,580.47744 C 26.991001,580.36145 96.836333,574.27282 120.1761,571.37348 C 152.47486,567.34339 168.3343,544.23558 173.52414,535.36354 C 173.98803,534.58073 198.57452,467.11285 229.24964,383.00272 C 230.23542,389.96114 233.16376,397.64445 239.2524,406.31348 C 246.99366,417.53398 307.61906,499.20865 308.31491,500.02049 C 326.98672,521.15674 342.17931,523.01234 360.44522,521.27273 C 360.44522,521.27273 417.53342,514.43024 419.09907,514.1403 C 439.82942,510.31317 450.90493,501.47014 463.37214,476.82568 C 471.1134,461.92303 569.48834,216.40607 569.48834,216.40607 L 479.81145,229.33717 C 451.25286,232.90337 443.9175,247.83503 439.9164,254.6485 C 430.95741,271.98661 385.61158,386.51093 369.11428,428.81243 C 358.82159,414.57665 279.95927,303.82147 265.49151,283.58401 C 273.87063,260.56317 282.19177,237.71629 290.10699,215.91318 C 303.32803,214.37653 338.87406,210.4624 346.7023,209.56361 C 335.22088,240.49967 322.43474,279.49592 321.7389,281.61245 C 319.27445,288.9478 316.25913,303.58952 323.27555,319.21702 C 328.92929,334.09068 376.88454,386.77189 376.88454,386.77189 C 376.88454,386.77189 443.25065,230.67087 459.37104,196.80647 C 469.3448,195.70472 516.95213,189.87702 521.0402,189.41312 C 562.12399,184.80316 574.73616,177.11988 583.60818,162.7681 C 590.39265,151.75057 622.14054,71.380604 622.14054,71.380604 C 622.14054,71.380604 371.92665,104.7521 362.03986,105.96983"
   clip-path="none" /><path
   style="fill:#c9cdd3"
   id="path170"
   d="M 329.07425,70.336827 L 257.89522,79.237839 C 245.60197,80.600531 224.98759,82.948997 216.0576,110.05793 C 211.41864,124.69964 157.54872,263.66548 157.54872,263.66548 C 154.53339,264.0134 153.98252,263.78145 152.64882,262.36077 C 147.89388,257.40288 66.538128,176.91693 59.144787,169.52359 C 41.05284,151.72158 25.657302,150.18492 13.624996,151.69259 L -70.079248,162.18823 C -70.079248,162.18823 89.616953,312.22958 127.48246,348.58743 C 119.59623,374.42064 47.402422,567.19841 47.402422,567.19841 C 47.402422,567.14042 92.574288,562.29851 115.82707,559.37017 C 149.6045,555.16612 161.92674,529.99975 163.26044,526.63652 C 164.21722,524.20106 329.07425,70.336827 329.07425,70.336827 M 363.28658,115.97259 C 350.99334,117.56724 330.37896,134.87635 324.00039,149.14116 C 318.20169,162.13025 300.68962,204.54773 300.68962,204.54773 C 300.68962,204.54773 347.80405,199.3289 362.09785,197.64728 C 352.26905,222.23377 338.52614,262.53473 331.30676,284.68576 C 329.24822,290.7744 326.78377,302.89368 332.64046,315.50585 C 336.58357,326.78432 373.95619,370.10061 373.95619,370.10061 C 373.95619,370.10061 437.39397,220.55214 454.23919,186.16585 C 466.12653,184.71618 518.66275,178.62754 526.11407,177.67076 C 556.93416,173.69865 567.16887,168.97271 574.35925,155.66469 C 580.18695,144.96609 601.46817,86.109301 601.46817,86.109301 L 363.28658,115.97259 M 481.08717,239.28194 C 460.93668,241.80438 453.97824,248.50188 448.8754,259.22947 C 438.87263,278.56813 382.94418,420.72327 373.66626,444.52691 C 369.14327,445.28075 367.86755,445.22276 362.88067,437.5105 L 265.86843,301.09608 C 265.86843,301.15407 244.90613,354.27015 242.49967,360.96765 C 238.26662,371.98519 235.48324,383.35063 247.48655,400.51479 C 254.96687,411.30037 300.22572,469.9542 315.59228,489.08993 C 332.72743,509.53034 342.20831,509.70431 358.7346,508.19662 L 411.90868,501.61512 C 432.58104,498.2229 441.685,494.30876 452.90549,472.07075 C 460.24084,458.09588 549.51182,230.9898 549.51182,230.9898 L 481.08717,239.28194"
   clip-path="none" /><path
   style="fill:#ffffff"
   id="path172"
   d="M 53.14313,176.80096 C 65.001464,190.05098 134.09298,256.04018 145.92233,268.04349 C 152.56183,274.76998 161.14391,273.14635 163.4344,268.85531 C 176.82939,233.83117 216.86941,131.94801 223.27698,111.88451 C 231.62711,86.515193 250.44389,86.167285 262.96908,84.601629 C 278.59657,82.659074 307.06819,80.368575 315.9692,79.266832 C 294.9779,136.49999 154.67836,521.12775 154.24346,522.34548 C 153.83755,523.56321 144.61762,548.06268 111.21711,552.17979 C 88.051304,555.10814 71.090098,557.0797 59.9856,558.26842 C 65.726308,542.293 127.33749,371.78222 134.9048,344.81828 C 101.30133,312.40355 -52.91509,167.92894 -52.91509,167.92894 C -52.91509,167.92894 -9.395839,162.10125 15.161642,159.08593 C 28.44067,157.4333 40.501968,162.7681 53.14313,176.80096 M 359.48844,122.96003 C 349.13775,127.19308 334.2351,140.41411 329.21922,151.46064 C 323.47851,164.33375 315.07039,186.07887 311.30124,195.55975 C 326.89974,193.79114 354.53055,190.48589 372.94142,188.16641 C 362.50376,211.99906 344.67276,267.52161 338.49714,286.48336 C 336.26464,293.12287 334.93094,303.35758 339.65688,313.36033 C 342.49824,322.49328 369.37522,353.34238 371.81067,355.66185 C 382.10336,335.25042 421.44754,236.61454 447.33873,178.97547 C 465.51766,176.80096 487.6397,174.30751 508.1671,171.98803 C 528.6655,169.66855 554.09279,167.98693 564.58845,152.79434 C 571.43092,142.93655 590.04472,93.415647 590.04472,93.415647 C 363.77947,121.97425 363.60551,121.3074 359.48844,122.96003 z M 268.41986,315.62182 C 259.72181,334.38062 252.99532,351.22584 248.76226,362.96821 C 245.08009,372.59405 242.84759,380.68325 253.5172,395.99179 C 260.93953,406.60343 304.42978,464.24251 320.11526,483.84209 C 337.48237,504.54345 344.9337,501.78909 362.41678,500.39739 C 374.62304,498.86075 384.94473,498.04893 406.83482,495.3525 C 426.75335,492.13425 434.61059,489.61181 445.16422,468.67849 C 458.35627,443.48315 519.35858,281.35151 537.74047,239.74584 C 526.78093,241.10854 505.47069,243.25405 480.0724,246.41434 C 459.42902,250.24149 456.64566,258.67859 452.23863,268.0145 C 442.93172,286.04846 391.99015,415.50442 380.01583,445.80263 C 378.3632,450.00668 376.53661,451.65934 373.78223,452.06523 C 368.44743,452.87706 364.70727,452.73209 358.00977,442.29442 C 335.24987,410.80748 287.17865,341.36805 268.41986,315.62182 z "
   clip-path="none" /><path
   style="fill:#74aed5"
   id="path174"
   d="M 258.852,166.45027 L 121.16188,535.30557 C 126.46769,534.34877 132.81726,533.73992 137.48522,522.83836 C 148.53174,496.88918 263.69392,179.32339 263.69392,179.32339 L 258.852,166.45027 M 268.94174,164.62368 L 296.94946,90.806232 C 291.46969,90.951212 285.613,92.487857 283.35151,98.605483 C 273.49372,125.16353 264.44775,149.17015 264.44775,149.17015 L 268.94174,164.62368 z M 486.59594,311.88166 L 420.63572,480.13095 C 425.91254,479.17415 432.3201,478.56528 436.95906,467.66373 C 448.00559,441.71455 492.62659,322.49328 492.62659,322.49328 L 486.59594,311.88166 z M 562.32696,107.9414 L 542.37943,155.60671 C 547.65625,154.62093 554.41172,154.12804 558.70276,143.08152 C 562.18198,134.12253 572.67764,106.78165 572.67764,106.78165 L 562.32696,107.9414 z M 544.66991,116.3495 L 482.36288,123.51091 C 483.95753,119.77074 485.34921,115.39272 496.65668,113.76908 C 506.05058,112.40639 549.25088,107.73843 549.25088,107.73843 L 544.66991,116.3495 z M 497.87441,305.44511 L 520.54732,249.40068 C 515.06754,249.51665 509.23985,251.11129 506.97837,257.19992 C 497.09158,283.75797 491.87275,294.80449 491.87275,294.80449 L 497.87441,305.44511 z "
   clip-path="none" /><path
   id="path176"
   d="M 560.73231,205.50452 C 557.80396,198.28514 554.52771,191.23972 550.9325,184.33926 C 555.91939,183.03456 560.15243,181.58488 563.80562,179.99024 C 566.0961,187.2966 569.54633,198.66205 570.21319,202.17027 C 570.44512,203.18504 566.79195,204.31578 560.73231,205.50452 M 468.18506,215.94218 L 460.06689,196.69049 C 460.73373,196.60351 461.60354,196.51653 462.53133,196.40056 C 466.73539,202.54718 470.56253,208.89676 473.98377,215.44929 C 470.30158,215.79721 468.18506,215.94218 468.18506,215.94218"
   clip-path="none" /><path
   style="fill:#c9cdd3"
   id="path178"
   d="M 546.67045,207.73702 C 543.71313,200.77858 540.40787,193.90712 536.81268,187.20962 C 542.14748,186.36881 546.81543,185.38303 550.9325,184.28128 C 554.52771,191.21072 557.80396,198.25615 560.7613,205.44653 C 556.93416,206.20036 552.12124,207.01218 546.67045,207.73702 M 473.95476,215.47828 C 470.53354,208.89676 466.7064,202.54718 462.50233,196.42955 C 467.25727,195.87868 474.88256,194.97988 483.08773,193.9941 C 487.05983,200.34368 490.65502,206.9252 493.9023,213.65169 C 485.66815,214.46351 478.59372,215.07237 473.95476,215.47828"
   clip-path="none" /><path
   style="fill:#00728d"
   id="path180"
   d="M 537.36355,208.98374 C 534.31923,201.9963 530.92699,195.21183 527.24483,188.6303 C 530.63705,188.1954 533.82635,187.7315 536.81268,187.23861 C 540.43686,193.93611 543.71313,200.77858 546.67045,207.73702 C 543.77112,208.17192 540.61081,208.60682 537.36355,208.98374 M 493.9023,213.65169 C 490.71301,206.9252 487.08882,200.34368 483.11672,193.9651 C 486.39297,193.5302 489.75622,193.15329 493.09048,192.74738 C 496.94662,199.24192 500.45483,205.85244 503.52814,212.6949 C 500.22287,213.04283 496.97561,213.39075 493.9023,213.65169"
   clip-path="none" /><path
   style="fill:url(#linearGradient2663)"
   clip-path="none"
   d="M 527.27327,188.65879 C 525.24372,188.89074 523.1566,189.15153 521.01108,189.41247 C 519.01054,189.64442 506.51436,191.12314 493.11936,192.77577 C 496.91752,199.24132 500.4543,205.90989 503.52763,212.72336 C 514.51616,211.62161 526.57769,210.34574 537.39227,209.01204 C 534.31896,202.0246 530.95542,195.24032 527.27327,188.65879 z "
   id="polygon195" /><path
   id="path197"
   d="M 460.06689,196.69049 L 456.52967,188.28238 C 456.52967,188.28238 533.07251,186.16585 561.74708,173.40871 C 561.74708,173.40871 562.61688,176.13411 563.80562,179.96124 C 560.18144,181.58488 555.94838,183.00556 550.99049,184.28128 C 546.81543,185.35403 542.11848,186.33981 536.84167,187.20962 C 533.82635,187.7315 530.66604,188.16641 527.27382,188.6303 C 525.27326,188.89124 523.18572,189.15219 521.01121,189.35514 C 519.01067,189.58709 506.48548,191.15274 493.11947,192.74738 C 489.78522,193.15329 486.42197,193.5592 483.11672,193.9651 C 474.94055,194.95088 467.28626,195.84968 462.53133,196.40056 C 461.60354,196.54553 460.76272,196.60351 460.06689,196.69049"
   clip-path="none" />
</svg>